<svg id="Groupe_694" data-name="Groupe 694" xmlns="http://www.w3.org/2000/svg" width="288.98" height="245.383" viewBox="0 0 288.98 245.383">
  <path id="Tracé_256" data-name="Tracé 256" d="M308.389,168.626C302.306,145,280.1,146.467,259.063,150.851c-11.317,2.358-27.164,5.622-43.7.8-35.594-10.372-76.522-12.963-96.691,0s-32.293,28.583-26.478,50.4,20.591,41.441,8.025,53.12-12.354,55.911,39.314,59.356,46.544-46.14,80.666-43.838,104.168,35.868,107.127,11.533-35.045-41.693-21.421-82.1C308.608,192.107,311.169,179.425,308.389,168.626Z" transform="translate(-53.701 -69.322)" fill="#ffebf2"/>
  <g id="Groupe_100" data-name="Groupe 100" transform="translate(0 45.97)">
    <path id="Tracé_257" data-name="Tracé 257" d="M236.293,116.922s1.319-8.474,5.035-8.144c1.028.092,1.728,1.133,2.186,2.253a.78.78,0,0,0,1.474-.075c.983-3.443,2.993-8.7,6.109-8.7,3.222,0,3.329,6.013,3.1,9.675a.542.542,0,0,0,.99.339c.85-1.251,2.09-2.452,3.6-2.1,2.938.678,2.147,6.755,2.147,6.755Z" transform="translate(-100.413 -102.257)" fill="#ffebf2"/>
    <path id="Tracé_258" data-name="Tracé 258" d="M36.2,234.27s1.319-8.474,5.035-8.144c1.029.092,1.728,1.134,2.186,2.253A.78.78,0,0,0,44.9,228.3c.983-3.443,2.993-8.7,6.109-8.7,3.223,0,3.329,6.013,3.1,9.675a.543.543,0,0,0,.991.34c.85-1.252,2.09-2.452,3.6-2.1,2.938.678,2.147,6.754,2.147,6.754Z" transform="translate(-36.2 -139.916)" fill="#ffebf2"/>
    <path id="Tracé_259" data-name="Tracé 259" d="M421.164,184.416s1.319-8.474,5.035-8.144c1.028.092,1.728,1.134,2.186,2.253a.78.78,0,0,0,1.474-.075c.983-3.443,2.993-8.7,6.109-8.7,3.222,0,3.329,6.013,3.1,9.675a.543.543,0,0,0,.99.34c.85-1.252,2.09-2.452,3.6-2.1,2.938.678,2.147,6.754,2.147,6.754Z" transform="translate(-159.74 -123.917)" fill="#ffebf2"/>
  </g>
  <g id="Groupe_109" data-name="Groupe 109" transform="translate(168.362 40.659)">
    <g id="Groupe_101" data-name="Groupe 101" transform="translate(66.977 181.568)">
      <path id="Tracé_260" data-name="Tracé 260" d="M402.972,384.515s4.149-.732,3.9-6.223-2.074-13.054-5.734-15.25a4.942,4.942,0,0,0-6.332.976Z" transform="translate(-386.622 -361.954)" fill="#7b7b9a"/>
      <path id="Tracé_261" data-name="Tracé 261" d="M382.753,362.895c.122,1.83,1.83,4.513,5.49,6.466s5.613,8.907,7.258,11.956a6.551,6.551,0,0,0,2.245,2.571,2.881,2.881,0,0,0,1.356.479s.02-.481.024-1.314a62.042,62.042,0,0,0-.782-10.155c-1-5.977-4.544-8.052-4.544-8.052a6.286,6.286,0,0,0-3.626-2.383c-2.595-.811-5.706-.848-6.912-.236C382.923,362.4,382.735,362.622,382.753,362.895Z" transform="translate(-382.752 -361.806)" fill="#e7004c"/>
      <path id="Tracé_262" data-name="Tracé 262" d="M400.443,372.233c.865,3.662,1.257,9.7.812,11.965a2.881,2.881,0,0,0,1.356.479,61.64,61.64,0,0,0-.758-11.469c-1-5.977-4.544-8.052-4.544-8.052a6.286,6.286,0,0,0-3.626-2.383C395.782,364.874,399.709,369.133,400.443,372.233Z" transform="translate(-386.26 -362.117)" fill="#2c2a40"/>
      <path id="Tracé_263" data-name="Tracé 263" d="M382.753,363.093c.122,1.83,1.83,4.513,5.49,6.466s5.613,8.907,7.258,11.956a6.551,6.551,0,0,0,2.245,2.571,2.881,2.881,0,0,0,1.356.479s.02-.481.024-1.314a.62.62,0,0,0-.269-.15c-1.219-.306-2.866-.776-3.843-5.307s-2.623-7.809-5.428-9.211c-2.561-1.279-5.776-5.435-6.323-6.158C382.923,362.6,382.735,362.82,382.753,363.093Z" transform="translate(-382.752 -362.005)" fill="#2c2a40" opacity="0.2"/>
    </g>
    <path id="Tracé_264" data-name="Tracé 264" d="M336.128,194.221s28.253-4.244,35.924,7.754-2.633,52.1-10.947,58.171-22.129,2.924-27.3-.892S326.237,200.013,336.128,194.221Z" transform="translate(-298.627 -126.225)" fill="#004883"/>
    <path id="Tracé_265" data-name="Tracé 265" d="M387.37,264.811a7.322,7.322,0,0,0,4.862-5.063l-4.27-1.891S386.291,262.188,387.37,264.811Z" transform="translate(-317.14 -146.88)" fill="#00497b"/>
    <path id="Tracé_266" data-name="Tracé 266" d="M387.543,247.528c5.856,8.907,19.075,11.224,19.075,11.224,2.736-.8,6.383-4.606,9.99-9.249h0a202.724,202.724,0,0,0,13.555-20.673L424.675,227s-9.639,10.645-13.785,12.962-5.37,4.515-5.37,4.515a14.554,14.554,0,0,0-1.469-1.372,38.6,38.6,0,0,0-7.011-4.334C392.341,237.458,387.543,247.528,387.543,247.528Z" transform="translate(-317.312 -136.978)" fill="#f9b587"/>
    <path id="Tracé_267" data-name="Tracé 267" d="M387.543,253.035c5.856,8.907,19.075,11.224,19.075,11.224,2.736-.8,6.383-4.606,9.99-9.249,0,0-6.442,6.845-10.539,7.419s-11.855-5-12.638-7.137.374-7.569,3.609-11.013C392.341,242.964,387.543,253.035,387.543,253.035Z" transform="translate(-317.312 -142.484)" fill="#f39568"/>
    <path id="Tracé_268" data-name="Tracé 268" d="M304.793,291.644s-.308,18,2.219,29.373S320.338,302.4,320.338,302.4,310.661,293.907,304.793,291.644Z" transform="translate(-290.753 -157.723)" fill="#0b5693"/>
    <path id="Tracé_269" data-name="Tracé 269" d="M340.235,303.6s-.234,10.615-7.189,18.118A51.09,51.09,0,0,0,323.105,338s10.41-4.758,17.13-3.477c0,0,3.517.183,4.8-1.281s1.647-3.2,3.66-2.654,4.85-.092,5.582-.183,5.4,7.32,4.483,12.17c0,0-3.66,1.006-4.117,1.647s-3.111,3.386-4.758,3.294-6.039,2.471-6.039,2.471-22.634,8.612-24.706,10.065c-3.49,2.448-19.948,5.124-21.412-4.118s12.9-53.164,14.915-57.921S337.815,297.834,340.235,303.6Z" transform="translate(-288.455 -159.131)" fill="#004883"/>
    <g id="Groupe_102" data-name="Groupe 102" transform="translate(30.325 143.628)">
      <path id="Tracé_270" data-name="Tracé 270" d="M330.067,351.055l.638.233c.232-.634.515-1.309.843-2.007l-.614-.289C330.6,349.708,330.305,350.4,330.067,351.055Z" transform="translate(-329.192 -319.755)" fill="#5b5b6c"/>
      <path id="Tracé_271" data-name="Tracé 271" d="M379.343,350.471l.145.663c.672-.147,1.4-.289,2.156-.421l-.117-.669C380.76,350.178,380.024,350.322,379.343,350.471Z" transform="translate(-345.006 -320.092)" fill="#5b5b6c"/>
      <path id="Tracé_272" data-name="Tracé 272" d="M329.484,359.727l-.675.075.01.076a3.7,3.7,0,0,0,.863,2.138l.5-.461a3.113,3.113,0,0,1-.688-1.764Z" transform="translate(-328.789 -323.2)" fill="#5b5b6c"/>
      <path id="Tracé_273" data-name="Tracé 273" d="M337.7,362.361l.183.654c.7-.194,1.432-.43,2.124-.655l-.209-.646C339.11,361.937,338.384,362.171,337.7,362.361Z" transform="translate(-331.642 -323.838)" fill="#5b5b6c"/>
      <path id="Tracé_274" data-name="Tracé 274" d="M336.341,339.423c-.429.644-.835,1.271-1.2,1.862l.576.361c.367-.585.768-1.207,1.194-1.846Z" transform="translate(-330.819 -316.684)" fill="#5b5b6c"/>
      <path id="Tracé_275" data-name="Tracé 275" d="M334.03,344.445l-.585-.345c-.4.67-.761,1.323-1.087,1.941l.6.316C333.28,345.749,333.64,345.106,334.03,344.445Z" transform="translate(-329.928 -318.185)" fill="#5b5b6c"/>
      <path id="Tracé_276" data-name="Tracé 276" d="M355.026,306.054l-.67-.116c-.124.716-.27,1.439-.433,2.147l.662.152C354.751,307.518,354.9,306.783,355.026,306.054Z" transform="translate(-336.848 -305.938)" fill="#5b5b6c"/>
      <path id="Tracé_277" data-name="Tracé 277" d="M340,335.275l-.553-.393c-.462.649-.878,1.243-1.271,1.814l.559.385C339.127,336.512,339.541,335.922,340,335.275Z" transform="translate(-331.795 -315.227)" fill="#5b5b6c"/>
      <path id="Tracé_278" data-name="Tracé 278" d="M342.662,330.42q-.646.883-1.3,1.786l.551.4q.65-.9,1.3-1.783Z" transform="translate(-332.817 -313.795)" fill="#5b5b6c"/>
      <path id="Tracé_279" data-name="Tracé 279" d="M329.835,354.39l-.655-.177a12.293,12.293,0,0,0-.4,2.23l.677.053A11.637,11.637,0,0,1,329.835,354.39Z" transform="translate(-328.779 -321.43)" fill="#5b5b6c"/>
      <path id="Tracé_280" data-name="Tracé 280" d="M332.449,363.261l-.128.667a4.443,4.443,0,0,0,.84.074,8.088,8.088,0,0,0,1.479-.154l-.125-.668A5.661,5.661,0,0,1,332.449,363.261Z" transform="translate(-329.916 -324.308)" fill="#5b5b6c"/>
      <path id="Tracé_281" data-name="Tracé 281" d="M359.281,358.741l.113.67c.74-.126,1.475-.286,2.187-.477l-.176-.655C360.715,358.464,360,358.62,359.281,358.741Z" transform="translate(-338.567 -322.735)" fill="#5b5b6c"/>
      <path id="Tracé_282" data-name="Tracé 282" d="M364.527,357.236l.223.642a17.4,17.4,0,0,0,2.077-.867l-.3-.607A16.746,16.746,0,0,1,364.527,357.236Z" transform="translate(-340.251 -322.133)" fill="#5b5b6c"/>
      <path id="Tracé_283" data-name="Tracé 283" d="M342.932,360.728l.205.647c.847-.268,1.5-.457,2.1-.611l-.168-.658C344.453,360.263,343.792,360.456,342.932,360.728Z" transform="translate(-333.321 -323.321)" fill="#5b5b6c"/>
      <path id="Tracé_284" data-name="Tracé 284" d="M353.886,359.384l.006.679c.737-.007,1.489-.049,2.235-.127l-.07-.675C355.332,359.336,354.6,359.378,353.886,359.384Z" transform="translate(-336.836 -323.05)" fill="#5b5b6c"/>
      <path id="Tracé_285" data-name="Tracé 285" d="M373.975,351.885l.246.633a20.015,20.015,0,0,1,2.07-.656l-.174-.657A20.675,20.675,0,0,0,373.975,351.885Z" transform="translate(-343.283 -320.465)" fill="#5b5b6c"/>
      <path id="Tracé_286" data-name="Tracé 286" d="M370.367,353.787a5.88,5.88,0,0,1-1.016.854l.384.56a6.56,6.56,0,0,0,1.133-.955,2.736,2.736,0,0,1,.553-.442l-.363-.574A3.4,3.4,0,0,0,370.367,353.787Z" transform="translate(-341.799 -321.114)" fill="#5b5b6c"/>
      <path id="Tracé_287" data-name="Tracé 287" d="M353.08,311.265c-.193.711-.407,1.415-.636,2.094l.644.217c.233-.691.451-1.408.647-2.132Z" transform="translate(-336.373 -307.647)" fill="#5b5b6c"/>
      <path id="Tracé_288" data-name="Tracé 288" d="M344.606,327.76l.548.4c.443-.606.879-1.2,1.3-1.787l-.55-.4Q345.273,326.851,344.606,327.76Z" transform="translate(-333.858 -312.368)" fill="#5b5b6c"/>
      <path id="Tracé_289" data-name="Tracé 289" d="M349.5,321.709l-.6-.321c-.35.651-.723,1.281-1.11,1.874l.568.371C348.756,323.024,349.139,322.377,349.5,321.709Z" transform="translate(-334.88 -310.896)" fill="#5b5b6c"/>
      <path id="Tracé_290" data-name="Tracé 290" d="M350.423,318.452l.614.289c.31-.658.6-1.349.877-2.052l-.634-.245C351.014,317.133,350.725,317.808,350.423,318.452Z" transform="translate(-335.725 -309.31)" fill="#5b5b6c"/>
      <path id="Tracé_291" data-name="Tracé 291" d="M348.321,359.542l.114.67a9.609,9.609,0,0,1,2.123-.154l.035-.678A10.252,10.252,0,0,0,348.321,359.542Z" transform="translate(-335.05 -323.085)" fill="#5b5b6c"/>
    </g>
    <path id="Tracé_292" data-name="Tracé 292" d="M303.569,113.468l2.76,11.762.016.073a46.969,46.969,0,0,0,.776,5.055c.663,3.2,1.84,7.278,3.85,10.173a11.552,11.552,0,0,0,.985,1.243s1.748,6.714,3.631,12.514h0c1.11,3.417,2.264,6.517,3.139,7.738,0,0,11.153-2.1,8.48-8.764,0,0-3.793-8.7-6.782-15.1l0,0c-.578-1.241-1.127-2.4-1.612-3.386l-3.419-7.8-1.638-3.738-4.97-11.345Z" transform="translate(-290.364 -100.035)" fill="#f9b587"/>
    <path id="Tracé_293" data-name="Tracé 293" d="M321.269,166.705c1.11,3.417,2.264,6.517,3.139,7.738,0,0,11.153-2.1,8.48-8.764,0,0-3.793-8.7-6.782-15.1.071.249,2.683,9.411,1.9,11.986C327.215,165.172,324.9,167.632,321.269,166.705Z" transform="translate(-296.044 -112.452)" fill="#f39568"/>
    <path id="Tracé_294" data-name="Tracé 294" d="M321.364,182.015a29.8,29.8,0,0,0,4.474,14.066c1.395,1.47,3.139,1.464,4.921.7,4.533-1.946,9.328-8.8,9.328-8.8l-6.531-13.808-.641-1.352c-3.689,1.006-7.426,3.632-9.595,5.351-1.173.93-1.887,1.594-1.887,1.594A16.445,16.445,0,0,0,321.364,182.015Z" transform="translate(-296.071 -119.59)" fill="#e62f6d"/>
    <path id="Tracé_295" data-name="Tracé 295" d="M321.364,184.543a29.8,29.8,0,0,0,4.474,14.066c1.395,1.47,3.139,1.464,4.921.7-3.915-3.887-6.592-14.767-7.439-18.61-1.173.93-1.887,1.594-1.887,1.594A16.445,16.445,0,0,0,321.364,184.543Z" transform="translate(-296.071 -122.118)" fill="#2c2a40" opacity="0.2"/>
    <path id="Tracé_296" data-name="Tracé 296" d="M321.364,182.015c3.055-3.032,10.044-6.742,12.192-7.846l-.641-1.352c-5.684,1.552-11.481,6.945-11.481,6.945A16.445,16.445,0,0,0,321.364,182.015Z" transform="translate(-296.071 -119.59)" fill="#2c2a40"/>
    <path id="Tracé_297" data-name="Tracé 297" d="M299.527,262.006c8.5,11,43.993,11.712,43.993,11.712s-1.258-14.565,0-21.778c1.383-7.93,2.582-19.582,2.582-19.582,3.247,2.374,8.206,6.792,11.03,9.357,1.314,1.2,2.165,1.99,2.165,1.99a35.053,35.053,0,0,1,3.409-9.515c2.914-5.285,6.087-6.623,6.087-6.623l-1.487-1.941-10.774-14.07-11.577-9.591-1.992-1.65-9.111-5.836-3.73-2.39s-9.642,4.035-12.388,8.226-9.052,23.61-10.98,33.142c-2.5,12.364-5.5,22.83-6.7,26.82l0,.007C299.719,261.4,299.527,262.006,299.527,262.006Z" transform="translate(-289.067 -125.774)" fill="#f53a79"/>
    <path id="Tracé_298" data-name="Tracé 298" d="M299.527,275.934c8.5,11,43.993,11.712,43.993,11.712s-1.258-14.565,0-21.778c1.383-7.93,2.582-19.582,2.582-19.582,3.247,2.374,8.206,6.792,11.03,9.357,1.314,1.2,2.165,1.99,2.165,1.99a35.053,35.053,0,0,1,3.409-9.515s-12.442-6.741-17.758-12.63c0,0-6.629,18.335-8.912,27.574-2.953,11.957-12.971,16.837-22.164,16.226s-13.817-5.084-13.817-5.084l0,.008C299.719,275.326,299.527,275.934,299.527,275.934Z" transform="translate(-289.067 -139.702)" fill="#2c2a40" opacity="0.2"/>
    <path id="Tracé_299" data-name="Tracé 299" d="M353.743,204.351c2.1-.414,3.174-1.586,4.772-2.885l-1.1-.91-9.718-7.714a5.321,5.321,0,0,0-3.122,4.9C344.238,202.679,349.448,205.2,353.743,204.351Z" transform="translate(-303.519 -126.016)" fill="#2c2a40"/>
    <path id="Tracé_300" data-name="Tracé 300" d="M384.355,257.565c1.314,1.2,2.165,1.99,2.165,1.99,2.91-13.36,9.5-16.138,9.5-16.138l-1.487-1.942A25.922,25.922,0,0,0,384.355,257.565Z" transform="translate(-316.289 -141.623)" fill="#2c2a40"/>
    <g id="Groupe_105" data-name="Groupe 105" transform="translate(40.344 32.716)">
      <path id="Tracé_301" data-name="Tracé 301" d="M371.444,187.543s.19,5.3-5.921,6.39C365.523,193.933,367.052,186.995,371.444,187.543Z" transform="translate(-350.589 -157.021)" fill="#2c2a40"/>
      <path id="Tracé_302" data-name="Tracé 302" d="M358.142,163.806a53.551,53.551,0,0,0,9.657,10.926s12.734-6.149,8.548-16.251a17.594,17.594,0,0,0-4-6.118v0h0c-6.369-6.081-14.857-2.152-14.857-2.152C353.787,154.048,355.28,159.21,358.142,163.806Z" transform="translate(-347.306 -144.649)" fill="#e7004c"/>
      <path id="Tracé_303" data-name="Tracé 303" d="M380.411,153.968l0,0v0Z" transform="translate(-355.367 -146.256)" fill="#3e86aa"/>
      <path id="Tracé_304" data-name="Tracé 304" d="M359.49,165.414a53.551,53.551,0,0,0,9.657,10.926s12.734-6.149,8.548-16.251a17.594,17.594,0,0,0-4-6.118c.073.117,3.586,5.741,0,9.483C370.072,167.238,363.793,168.593,359.49,165.414Z" transform="translate(-348.653 -146.257)" fill="#2c2a40" opacity="0.2"/>
      <path id="Tracé_305" data-name="Tracé 305" d="M364.6,159.074s-3.329-17.218-13.98-16.436c-9.974.732-2.2,13.931-2.2,13.931S362.814,160.68,364.6,159.074Z" transform="translate(-344.174 -142.612)" fill="#2c2a40"/>
      <path id="Tracé_306" data-name="Tracé 306" d="M352.25,157.884s-4.569.91-4.142,5.119C348.109,163,351.979,160.709,352.25,157.884Z" transform="translate(-344.992 -147.513)" fill="#2c2a40"/>
      <g id="Groupe_104" data-name="Groupe 104" transform="translate(0 10.191)">
        <g id="Groupe_103" data-name="Groupe 103">
          <path id="Tracé_307" data-name="Tracé 307" d="M359.813,191.134l-1.674,5.959a2.121,2.121,0,0,1-1.614,1.632c-6.993,1.538-10.323-3.589-9.62-5.387.9-.321,16.471-5.3,19.3-11.283A15.588,15.588,0,0,1,359.813,191.134Z" transform="translate(-344.585 -165.461)" fill="#f9b587"/>
          <path id="Tracé_308" data-name="Tracé 308" d="M346.652,183.034a16.516,16.516,0,0,0,8.674,1.061c6.193-1.1,9.418-8.43,9.418-8.43a22.108,22.108,0,0,0-.357-9.58,11.53,11.53,0,0,0-1.735-3.556c-2.913-3.939-7.756-4.642-10.421-4.9a3.48,3.48,0,0,0-3.3,1.643l-1.168,1.91-.78,1.274a8.588,8.588,0,0,0-.454.841,8.789,8.789,0,0,0-.813,3.084l-.091,1.248a8.808,8.808,0,0,0-1.846,5.016l-.242,5.622A4.875,4.875,0,0,0,346.652,183.034Z" transform="translate(-343.532 -157.619)" fill="#f9b587"/>
          <path id="Tracé_309" data-name="Tracé 309" d="M357.463,167.308s4.955-1.873,6.013,2.227l-.774.593s-1.5-3.16-5.44-1.751Z" transform="translate(-347.938 -160.591)" fill="#2c2a40"/>
          <path id="Tracé_310" data-name="Tracé 310" d="M345.963,170.323a8.718,8.718,0,0,0-1.379,2.549c.976-.2,2.668.011,5.507,1.738a6.9,6.9,0,0,0-2.648-2.757.7.7,0,0,1-.233-1.109l2.11-2.369a2.058,2.058,0,0,0-.68-1.2,12.924,12.924,0,0,0-1.773-1.182,8.756,8.756,0,0,0-.812,3.084Z" transform="translate(-343.87 -160.306)" fill="#f39568"/>
          <path id="Tracé_311" data-name="Tracé 311" d="M348.326,164.83a9.554,9.554,0,0,1,1.933,1.334l-.286.948a6.775,6.775,0,0,0-2.059-1.322.565.565,0,0,1-.34-.756l.005-.01A.543.543,0,0,1,348.326,164.83Z" transform="translate(-344.813 -159.91)" fill="#2c2a40"/>
          <path id="Tracé_312" data-name="Tracé 312" d="M345.591,179.6l8.594,2.823s-2.893,4.041-7.232,2.01C343.55,182.841,345.591,179.6,345.591,179.6Z" transform="translate(-343.998 -164.673)" fill="#fff"/>
          <path id="Tracé_313" data-name="Tracé 313" d="M348.3,193.1s5.4,1.6,11.26-4.325a9.153,9.153,0,0,1-3.018,6.3c-2.29,2.272-6.614,1.9-8.8,1.523a.952.952,0,0,1-.664-1.421Z" transform="translate(-344.629 -167.616)" fill="#f39568"/>
          <path id="Tracé_314" data-name="Tracé 314" d="M371.572,180.575s2.849-2.285,4.536.039-2.532,8.535-5.271,5.829S371.572,180.575,371.572,180.575Z" transform="translate(-351.957 -164.663)" fill="#f9b587"/>
        </g>
        <path id="Tracé_315" data-name="Tracé 315" d="M357.386,171.62a2.327,2.327,0,0,1,2.447-.692,2.43,2.43,0,0,1,1.586,2.618A2.72,2.72,0,0,0,357.386,171.62Z" transform="translate(-347.978 -161.843)" fill="#2c2a40"/>
        <path id="Tracé_316" data-name="Tracé 316" d="M349.284,170.2s-.636-2.155-2.258-.585A1.616,1.616,0,0,1,349.284,170.2Z" transform="translate(-344.654 -161.284)" fill="#2c2a40"/>
        <path id="Tracé_317" data-name="Tracé 317" d="M349.6,161.156c0,.064-.147.3-.144.369,0,0,2.782-2.329,7.679-.438a15.245,15.245,0,0,1,7.3,6.526l1.856-1.528a11.53,11.53,0,0,0-1.735-3.556c-2.913-3.939-7.756-4.642-10.421-4.9a3.48,3.48,0,0,0-3.3,1.643Z" transform="translate(-345.434 -157.619)" fill="#f39568"/>
      </g>
      <path id="Tracé_318" data-name="Tracé 318" d="M370.221,176.584l1.609.732,2.346-2.1c.369-2.022-1.27-7.421-1.654-8.636-.207-.2-.547-.392-.786-.586,0,0-1.615,5.585.133,7.654Z" transform="translate(-352.097 -150.114)" fill="#2c2a40"/>
    </g>
    <path id="Tracé_319" data-name="Tracé 319" d="M307.633,130.592l.016.073a46.957,46.957,0,0,0,.776,5.055l8.272-3.393-1.638-3.738Z" transform="translate(-291.668 -105.396)" fill="#f39568"/>
    <path id="Tracé_320" data-name="Tracé 320" d="M323.949,215.022l6.548,5.847s-2.342,9.187-7.353,7.137C317.1,225.536,323.949,215.022,323.949,215.022Z" transform="translate(-295.847 -133.134)" fill="#2c2a40" opacity="0.2"/>
    <g id="Groupe_107" data-name="Groupe 107" transform="translate(0 0)">
      <g id="Groupe_106" data-name="Groupe 106">
        <rect id="Rectangle_26" data-name="Rectangle 26" width="31.11" height="20.599" transform="matrix(-0.937, 0.35, -0.35, -0.937, 36.35, 20.493)" fill="#2c2a40"/>
        <path id="Tracé_321" data-name="Tracé 321" d="M284.124,111.429l7.205,19.3,29.144-10.881-1.1-.312-34.424-9.776-.558,1.125h0Z" transform="translate(-284.124 -99.353)" fill="#002e53"/>
        <path id="Tracé_322" data-name="Tracé 322" d="M284.521,110.883l6.881,18.5.883-.329,10.462-14.819-17.667-4.48Z" transform="translate(-284.251 -99.353)" fill="#fff"/>
        <rect id="Rectangle_27" data-name="Rectangle 27" width="29.75" height="20.6" transform="matrix(-0.937, 0.35, -0.35, -0.937, 35.904, 19.298)" fill="#004883"/>
      </g>
      <path id="Tracé_323" data-name="Tracé 323" d="M298.966,100.9l0,0a1.9,1.9,0,0,1,1.327-.641,1.245,1.245,0,0,1,1.035-.769,1.319,1.319,0,0,1,.863.131c.23-.442.807-.7,1.123-.53,0,0,.077.033.207.093a1.043,1.043,0,0,1,.354-.5h0a1.6,1.6,0,0,1,1.6-.5s3.085,1.245,3.379,3.624.73,5.147-.372,4.752a2.065,2.065,0,0,1-.9-1.041c.119,1.427.05,2.495-.663,2.24a2.661,2.661,0,0,1-1.1-1.478c.069,1.211-.052,2.052-.693,1.822-.579-.207-1.142-1.358-1.5-2.593.107,1.378.024,2.389-.672,2.14-.853-.306-1.1-2.221-1.693-3.77-.7-1.814-.861-.864-1.889-1.529l-.923.344A2.075,2.075,0,0,1,298.966,100.9Z" transform="translate(-288.713 -95.616)" fill="#f9b587"/>
    </g>
    <path id="Tracé_324" data-name="Tracé 324" d="M438.307,221.922a6.063,6.063,0,0,1-2.642-3.543c-.117-.423-.254-.872-.411-1.313-.61-1.708-.122-5.368,0-6.832a14.3,14.3,0,0,1,1.464-4.575c.3-.3,2.135,1,1.4,2.877a6.022,6.022,0,0,0,.172,4.574c.378.6,2.085-.5,2.513-1.594s4.148-9.394,4.88-9.638,1.343-.06.854,2.074-2.806,5.856-2.5,6.893.854.183,1.037-.366,3.172-8.4,3.66-8.684,1.891-.772,1.159,2.553-3,7.382-2.867,8.114,3.248-7.366,4.117-7.824,1.51.366.824,2.379-2.519,5.917-2.673,6.358c-.13.371-.057.685.263.5s2.255-4.937,2.7-5.211,1.541.229.351,3.477-1.982,6.127-5.215,9.116c-2,1.845-2.974,2.963-4.85,2.688A14.153,14.153,0,0,1,438.307,221.922Z" transform="translate(-332.527 -128.823)" fill="#f9b587"/>
    <path id="Tracé_325" data-name="Tracé 325" d="M369.786,213s.8-8.8-6.109-10.626c-4.953-1.312-13.344,7.812-15.468,18.057-3.756,18.117,4.95,33.917,10.643,35.992,0,0,5.2-4.026,1.235-9.456,0,0-10.715-10.8-5.938-26.353,3.979-12.952,10.334-16.288,12.725-9.93Z" transform="translate(-304.397 -129.034)" fill="#21759b"/>
    <path id="Tracé_326" data-name="Tracé 326" d="M315.136,217.591l2.959-9.105s-.412-15.907,16.369-19.916a4.821,4.821,0,0,1-.223-1.68l.1-2.425C332.247,184.6,310.855,190.785,315.136,217.591Z" transform="translate(-293.895 -123.327)" fill="#21759b"/>
    <path id="Tracé_327" data-name="Tracé 327" d="M413.251,257.4a24.534,24.534,0,0,1,0-5.307,14.559,14.559,0,0,0-1.47-1.372C411.056,256.328,413.251,257.4,413.251,257.4Z" transform="translate(-325.044 -144.588)" fill="#f39568"/>
    <path id="Tracé_328" data-name="Tracé 328" d="M314.47,153.678a11.548,11.548,0,0,0,.985,1.243s2.824-1.647,3.639-2.075A15.7,15.7,0,0,0,314.47,153.678Z" transform="translate(-293.862 -113.18)" fill="#f39568"/>
    <g id="Groupe_108" data-name="Groupe 108" transform="translate(65.82 165.868)">
      <path id="Tracé_329" data-name="Tracé 329" d="M381.048,344.523c1.515,1.431,2.741,4.778,3.537,7.49l0,.011c.646,2.2,1.006,3.981,1.006,3.981,1.347,1.464,4.419,1.043,9.359,1.579,4.445.483,7.56,3.574,10.874,4.905h0a9.042,9.042,0,0,0,1.111.373c1.971.518,3.36.194,4.116-.759.685-.862.851-2.242.459-3.982-.824-3.668-10.065-11.72-12.719-12.792a23.063,23.063,0,0,1-7.454-4.3c-3.151-2.595-6.363-2.772-7-1.8-.108.163-.271.421-.471.735C382.887,341.532,381.048,344.523,381.048,344.523Z" transform="translate(-381.048 -338.688)" fill="#e7004c"/>
      <path id="Tracé_330" data-name="Tracé 330" d="M385.206,339.967a7.089,7.089,0,0,1,4.07.562c1.891,1.1,4.575,3.66,7.441,5a56.7,56.7,0,0,1,11.226,7.809c2.866,2.684,4.553,6.908,3.721,8.3s-2.35,1.339-4.5.853a9.043,9.043,0,0,0,1.111.373c3.751.985,5.4-1.074,4.575-4.741s-10.065-11.72-12.719-12.792a23.063,23.063,0,0,1-7.454-4.3c-3.151-2.595-6.363-2.772-7-1.8C385.569,339.395,385.406,339.653,385.206,339.967Z" transform="translate(-382.382 -338.688)" fill="#2c2a40"/>
      <path id="Tracé_331" data-name="Tracé 331" d="M386.263,358.326c.646,2.2,1.006,3.981,1.006,3.981,1.347,1.464,4.419,1.043,9.359,1.579,4.445.484,7.56,3.574,10.874,4.905h0a9.043,9.043,0,0,0,1.111.373c1.971.518,3.36.194,4.116-.759l.245-1.442a7.811,7.811,0,0,1-7.075-.549c-2.895-1.68-4.2-3.318-6.525-3.966a6.026,6.026,0,0,0-.552-3.66,13.975,13.975,0,0,1-.721,3.358,7.693,7.693,0,0,0-1.475-.064C392.855,362.265,386.962,360.447,386.263,358.326Z" transform="translate(-382.722 -344.99)" fill="#2c2a40" opacity="0.2"/>
    </g>
  </g>
  <g id="Groupe_120" data-name="Groupe 120" transform="translate(12.23)">
    <g id="Groupe_110" data-name="Groupe 110" transform="translate(0 156.612)">
      <path id="Tracé_332" data-name="Tracé 332" d="M59,293.54a4.369,4.369,0,0,0,2.921-1.508l.077-.081,0,0c1.423-1.531,2.446-3.863,3.456-5.618a11,11,0,0,1,.894-1.366,55.925,55.925,0,0,0,4.064-7.276c.074-.147.147-.3.219-.441,1.408-2.849,2.559-5.344,2.559-5.344a24.414,24.414,0,0,0-1.388-3.169,14.61,14.61,0,0,0-.872-1.448,4.651,4.651,0,0,0-2.151-1.916c-2.44-.751-4.7.867-6.579,3.053-1.838,2.14-6.9,11.166-7.721,14.913-.018.079-.034.158-.047.234C53.578,288.282,55.184,293.76,59,293.54Z" transform="translate(-54.21 -265.185)" fill="#e7004c"/>
      <path id="Tracé_333" data-name="Tracé 333" d="M59,293.54a4.43,4.43,0,0,0,3-1.589c-2.655,1.272-4.273.5-5.2-.551-1.164-1.316-1.6-4.93-1.3-6.457a48.122,48.122,0,0,1,4.889-11.863c1.4-2.319,4.174-6.148,6.87-6.522a5.973,5.973,0,0,1,3.679.729,4.651,4.651,0,0,0-2.151-1.916c-2.44-.751-4.7.867-6.579,3.053s-7.114,11.555-7.768,15.146C53.578,288.282,55.184,293.76,59,293.54Z" transform="translate(-54.21 -265.185)" fill="#2c2a40"/>
      <path id="Tracé_334" data-name="Tracé 334" d="M59,298.942a4.369,4.369,0,0,0,2.921-1.508l.077-.081,0,0c1.423-1.531,2.446-3.863,3.456-5.618a11,11,0,0,1,.894-1.366,55.924,55.924,0,0,0,4.064-7.276c.074-.147.147-.3.219-.441a1.659,1.659,0,0,0-1.844-.549,19.673,19.673,0,0,0-3.682,5.336c-1.966,3.946-3,7.691-6.679,7.723s-3.017-2.383-3.509-5.863c-.069-.485-.223-.644-.437-.557-.018.079-.034.158-.047.234C53.578,293.684,55.184,299.162,59,298.942Z" transform="translate(-54.21 -270.587)" fill="#2c2a40" opacity="0.2"/>
    </g>
    <g id="Groupe_111" data-name="Groupe 111" transform="translate(63.918 200.25)">
      <path id="Tracé_335" data-name="Tracé 335" d="M150.113,347.182c.041,2.04,1.644,15.54,6.045,18.271,2.223,1.379,3.5,1.325,4.138.294a5.217,5.217,0,0,0,.536-2.632,21.533,21.533,0,0,0-.186-2.769c-.6-4.95-.676-16.408,3.676-18.895,0,0-.8-5.912-2.834-9.555a6.059,6.059,0,0,0-2.188-2.451,49.2,49.2,0,0,0-4.949.276,20.819,20.819,0,0,0-2.981.359c-1.37.375-2.619,1.3-2.942,3.836C147.856,338.386,150.071,345.142,150.113,347.182Z" transform="translate(-148.333 -329.445)" fill="#e7004c"/>
      <path id="Tracé_336" data-name="Tracé 336" d="M150.113,347.482c.041,2.04,1.644,15.54,6.045,18.271,2.223,1.379,3.5,1.325,4.138.294a6,6,0,0,1-4.067-1.52c-1.912-1.643-4.317-10.91-4.176-13.9s-1.092-8.43-2.174-12.6c-.82-3.159.7-6.3,1.491-7.642-1.37.375-2.619,1.3-2.942,3.836C147.856,338.686,150.071,345.442,150.113,347.482Z" transform="translate(-148.333 -329.745)" fill="#2c2a40"/>
      <path id="Tracé_337" data-name="Tracé 337" d="M150.113,347.182c.041,2.04,1.644,15.54,6.045,18.271,2.223,1.379,3.5,1.325,4.138.294a5.217,5.217,0,0,0,.536-2.632,5.559,5.559,0,0,1-3.567-.953c-2.579-1.45-3.093-9.356-2.722-14.577s-2.75-9.326-.956-12.612,7.725-2.543,7.725-2.543a5,5,0,0,0,.177-.533,6.059,6.059,0,0,0-2.188-2.451,49.2,49.2,0,0,0-4.949.276,20.819,20.819,0,0,0-2.981.359c-1.37.375-2.619,1.3-2.942,3.836C147.856,338.386,150.071,345.142,150.113,347.182Z" transform="translate(-148.333 -329.445)" fill="#2c2a40" opacity="0.2"/>
    </g>
    <path id="Tracé_338" data-name="Tracé 338" d="M136.149,144.9s-26.495.718-31.549,12.922,10.876,47.154,19.456,51.348,20.686-.926,24.787-5.253S146.123,148.588,136.149,144.9Z" transform="translate(-70.069 -69.973)" fill="#004883"/>
    <g id="Groupe_113" data-name="Groupe 113" transform="translate(30.55 103.159)">
      <g id="Groupe_112" data-name="Groupe 112" transform="translate(1.574)">
        <path id="Tracé_339" data-name="Tracé 339" d="M118.929,190.762a33.366,33.366,0,0,1-2.058,10.289s-.593,3.576-1.516,8.009v0c-1.087,5.22-2.145,9.059-3.71,12.234a54.885,54.885,0,0,0-2.924,7.233q-.119.365-.223.7h0c-.621,2-.9,3.28-.9,3.28l-5.812-1.937s-.362-6.123-.256-9.458c.13-4.133-.3-12.211,2.34-18.9h0a11.712,11.712,0,0,1,.687-1.458,107.79,107.79,0,0,1,1.819-10.953,12.021,12.021,0,0,1,1.164-3.271S116.149,185.632,118.929,190.762Z" transform="translate(-101.514 -186.471)" fill="#f9b587"/>
        <path id="Tracé_340" data-name="Tracé 340" d="M109.431,208.1s-3.383.036-4.442.858h0a11.71,11.71,0,0,1,.687-1.458S108.273,207.348,109.431,208.1Z" transform="translate(-102.629 -193.216)" fill="#f39568"/>
        <path id="Tracé_341" data-name="Tracé 341" d="M121.228,190.762a33.366,33.366,0,0,1-2.058,10.289s-.593,3.576-1.516,8.009c.357-3.337.106-9.325.175-13.692.047-2.983-2.638-3.682-4.984-4.524-.977-.351-2.893-.714-4.024-1.087-.049-.016-.1.032-.143.046a12.02,12.02,0,0,1,1.164-3.271S118.448,185.632,121.228,190.762Z" transform="translate(-103.813 -186.471)" fill="#f39568"/>
      </g>
      <path id="Tracé_342" data-name="Tracé 342" d="M106,247.6l5.569,3.948a2.27,2.27,0,0,1,.957,1.814l.091,5.364a1.155,1.155,0,0,1-1.137,1.175h0a1.156,1.156,0,0,1-1.138-.871l-1.283-5.054-1.314-.481.824,3.018,1.015,2.737,2.538,3.175a1.035,1.035,0,0,1-.2,1.484h0a1.035,1.035,0,0,1-1.353-.12l-3.345-3.476-2.238-2.746,1.762,3.448,3.4,5.072a.994.994,0,0,1,0,1.109h0a.992.992,0,0,1-1.521.147l-3.681-3.66-2.093-3.262,1.839,5.754,1.629,3.681a.892.892,0,0,1-.344,1.119h0a.892.892,0,0,1-1.23-.288l-2.365-3.824-1.707-4.436,1.1,3.819.605,1.3a.542.542,0,0,1-.263.72h0a.543.543,0,0,1-.668-.174l-.9-1.247L99.2,263.693l1.876-13.555S101.853,248.279,106,247.6Z" transform="translate(-99.196 -206.09)" fill="#f9b587"/>
      <path id="Tracé_343" data-name="Tracé 343" d="M110.033,248.913a6.472,6.472,0,0,0-3.736-.766,5.607,5.607,0,0,1,3.959.063Z" transform="translate(-101.475 -206.153)" fill="#f39568"/>
    </g>
    <g id="Groupe_115" data-name="Groupe 115" transform="translate(65.92)">
      <path id="Tracé_344" data-name="Tracé 344" d="M180.627,103.285c5.926-11.686,3.515-27.034,3.094-30.915a5.387,5.387,0,0,0-.432-1.392v0c-2.246-5.338-12.42-19.732-14.736-22.982-.157-.221-.278-.388-.359-.5s-.112-.158-.112-.158l-7.137,3.324a32,32,0,0,1,6.685,11.316c1.886,6.3,6.4,14.553,6.4,14.553-1.987,7.3-2.136,16.864-2.136,16.864C175.343,101.493,180.627,103.285,180.627,103.285Z" transform="translate(-154.383 -38.662)" fill="#f9b587"/>
      <path id="Tracé_345" data-name="Tracé 345" d="M185.8,114.457c5.926-11.686,3.515-27.034,3.094-30.915a5.388,5.388,0,0,0-.432-1.392c0,.193-.175,12.55-.979,16.543-.812,4.024-2.105,8.248-4.451,8.814a5.573,5.573,0,0,1-5.966-2.942C180.517,112.665,185.8,114.457,185.8,114.457Z" transform="translate(-159.556 -49.835)" fill="#f39568"/>
      <g id="Groupe_114" data-name="Groupe 114">
        <path id="Tracé_346" data-name="Tracé 346" d="M164.961,43.81a41.062,41.062,0,0,1-5.706,4.094c-.212.094-.5-.041-.776-.255a8.352,8.352,0,0,1-3.09-.441c-.543-.263-.516-1.04-.353-1.86C153.723,45,151.2,42.917,151.284,41c.091-2.089,2.339-2.187,2.339-2.187A1.923,1.923,0,0,1,156,36.858c.143-1.042,2.05-1.459,2.05-1.459.216-.886,1.458-1.009,2.185-.642s4.973,5.545,5.143,6.479A6.774,6.774,0,0,1,164.961,43.81Z" transform="translate(-151.282 -34.563)" fill="#f9b587"/>
        <path id="Tracé_347" data-name="Tracé 347" d="M159.68,45.989c.287,1.207-.726,1.337-.726,1.337.208-.151.206-.664.16-1.107a2.7,2.7,0,0,0-.1-.662l0,0a1.676,1.676,0,0,0-.847-1.1c-.9-.426-1.313-.161-1.313-.161l-1.738-2.483a13.511,13.511,0,0,1,2.12,1.95,2.331,2.331,0,0,1,2.36,1.819.816.816,0,0,0,.8-.578,2.266,2.266,0,0,0-.285-1.72L157.695,39.9s3.326,3.259,3.372,4.5A1.366,1.366,0,0,1,159.68,45.989Z" transform="translate(-152.511 -36.275)" fill="#f39568"/>
        <path id="Tracé_348" data-name="Tracé 348" d="M162.63,38.451a29.564,29.564,0,0,1,2.438,3.45,1.31,1.31,0,0,1-.805,1.722,1,1,0,0,1-.908-.164l-.019.838s2.242.4,2.273-1.732C165.624,41.5,162.63,38.451,162.63,38.451Z" transform="translate(-154.924 -35.811)" fill="#f39568"/>
        <path id="Tracé_349" data-name="Tracé 349" d="M166.816,43.44a1.308,1.308,0,0,0,1.2.338c.663-.2.809-.638.665-1.049a.781.781,0,0,1,.034.969c-.464.737-1.567.575-1.913.475Z" transform="translate(-156.261 -37.184)" fill="#f39568"/>
      </g>
      <path id="Tracé_350" data-name="Tracé 350" d="M170.165,48.955a2.333,2.333,0,0,0,1.347-.887c-.157-.221-.278-.388-.359-.5A5.491,5.491,0,0,1,170.165,48.955Z" transform="translate(-157.342 -38.737)" fill="#f39568"/>
      <path id="Tracé_351" data-name="Tracé 351" d="M162.681,54.025a4.475,4.475,0,0,0,1.635-.461,2.672,2.672,0,0,1-1.292.892Z" transform="translate(-154.94 -40.661)" fill="#f39568"/>
      <path id="Tracé_352" data-name="Tracé 352" d="M180.043,89.681s3.124-.475,4.187-1.362a5.062,5.062,0,0,1-4.545,2.786Z" transform="translate(-160.397 -51.814)" fill="#f39568"/>
    </g>
    <path id="Tracé_353" data-name="Tracé 353" d="M74.484,269.408c1.26.936.68,1.15,1.923,1.822a50.6,50.6,0,0,1,4.56,3.4l.01.008c8.262,8.772,22.188,22.423,29.734,23.46,7.114.978,17.715-18.976,24.489-33.624v0c.072-.107,2.833-4.178,6.957-2.979,4.178,1.216,19.575,15.669,26.663,19.325,0,0-9.5.486-12.6,4.467s-11.754,7.786-13.323,8.417-2.39-.075-3.849.888-3.668,2.151-3.668,2.151c-.059,4.434,1.594,8.272,4.832,12.122a16.149,16.149,0,0,1,2.643-1.112c1.8-.531,5.588-1.53,6.26-2.773s24.079-6.166,24.079-6.166,17.982-3.565,19.378-12.1-35.114-46.883-35.114-46.883l-2.825-12.3-13.18,2.181v0L117.4,231.532s-4.113,11.058-5.273,21.03c-.776,6.675-5.192,22.534-5.192,22.534a39.565,39.565,0,0,0-11.988-7.571c-2.024-.867-4.11-1.812-6.093-2.737h0s-3-1.508-4.048-2.961-1.685-.894-2.818-1.233-2.088-1.715-2.843-1.573a1.43,1.43,0,0,0-.979.514c-1.927,1.815-2.8,3.008-4.079,7.446A1.886,1.886,0,0,0,74.484,269.408Z" transform="translate(-60.496 -96.49)" fill="#004883"/>
    <g id="Groupe_116" data-name="Groupe 116" transform="translate(16.3 135.599)">
      <path id="Tracé_354" data-name="Tracé 354" d="M106.365,292.879l-.275.429c.561.359,1.165.781,1.795,1.254l.306-.408C107.551,293.673,106.936,293.244,106.365,292.879Z" transform="translate(-87.159 -253.059)" fill="#5b5b6c"/>
      <path id="Tracé_355" data-name="Tracé 355" d="M101.516,290.246l-.238.45c.544.288,1.068.555,1.557.794.136.066.273.137.411.209l.238-.45c-.143-.075-.285-.148-.426-.217C102.574,290.795,102.055,290.531,101.516,290.246Z" transform="translate(-85.615 -252.214)" fill="#5b5b6c"/>
      <path id="Tracé_356" data-name="Tracé 356" d="M96.461,288c.654.384,1.3.754,1.923,1.1l.247-.445c-.619-.344-1.262-.712-1.912-1.094Z" transform="translate(-84.069 -251.354)" fill="#5b5b6c"/>
      <path id="Tracé_357" data-name="Tracé 357" d="M110.5,296.546c.53.428,1.082.89,1.687,1.413l.333-.385c-.61-.527-1.165-.993-1.7-1.424Z" transform="translate(-88.574 -254.109)" fill="#5b5b6c"/>
      <path id="Tracé_358" data-name="Tracé 358" d="M119.105,303.414l-.335.382a14.945,14.945,0,0,0,1.561,1.254,2.066,2.066,0,0,0,.243.135l.216-.461a1.531,1.531,0,0,1-.183-.1A14.6,14.6,0,0,1,119.105,303.414Z" transform="translate(-91.228 -256.44)" fill="#5b5b6c"/>
      <path id="Tracé_359" data-name="Tracé 359" d="M123.552,304.515l.248.445a5.152,5.152,0,0,0,1.621-1.636l-.42-.287A4.677,4.677,0,0,1,123.552,304.515Z" transform="translate(-92.763 -256.319)" fill="#5b5b6c"/>
      <path id="Tracé_360" data-name="Tracé 360" d="M115.009,299.737l-.339.38c.481.429.943.845,1.376,1.237l.265.239.342-.378-.265-.239C115.953,300.584,115.491,300.167,115.009,299.737Z" transform="translate(-89.913 -255.26)" fill="#5b5b6c"/>
      <path id="Tracé_361" data-name="Tracé 361" d="M91.757,285.123c.606.387,1.238.782,1.879,1.172l.265-.435c-.638-.389-1.267-.781-1.869-1.167Z" transform="translate(-82.559 -250.433)" fill="#5b5b6c"/>
      <path id="Tracé_362" data-name="Tracé 362" d="M78.593,277.522q-.194.226-.38.46c.4.054.981.149,1.617.3l.116-.5C79.438,277.665,78.968,277.58,78.593,277.522Z" transform="translate(-78.213 -248.131)" fill="#5b5b6c"/>
      <path id="Tracé_363" data-name="Tracé 363" d="M82.886,278.556l-.176.478a5.044,5.044,0,0,1,1.7.949c.035.033.074.069.115.1l.339-.38-.106-.1A5.537,5.537,0,0,0,82.886,278.556Z" transform="translate(-79.656 -248.463)" fill="#5b5b6c"/>
      <path id="Tracé_364" data-name="Tracé 364" d="M87.479,281.622l-.3.412c.517.377,1.131.8,1.824,1.265l.283-.423C88.6,282.417,87.991,282,87.479,281.622Z" transform="translate(-81.09 -249.447)" fill="#5b5b6c"/>
      <path id="Tracé_365" data-name="Tracé 365" d="M136.856,257.468l.492.13q.281-1.068.572-2.134l-.492-.134Q137.138,256.4,136.856,257.468Z" transform="translate(-97.032 -241.009)" fill="#5b5b6c"/>
      <path id="Tracé_366" data-name="Tracé 366" d="M138.3,252.15l.491.137c.2-.715.4-1.425.6-2.125l-.489-.141Q138.6,251.072,138.3,252.15Z" transform="translate(-97.495 -239.305)" fill="#5b5b6c"/>
      <path id="Tracé_367" data-name="Tracé 367" d="M134.238,268.172l.5.111c.154-.695.321-1.419.494-2.151l-.5-.117C134.56,266.749,134.393,267.475,134.238,268.172Z" transform="translate(-96.192 -244.438)" fill="#5b5b6c"/>
      <path id="Tracé_368" data-name="Tracé 368" d="M135.5,262.806l.494.121c.17-.695.351-1.415.537-2.142l-.493-.126C135.849,261.387,135.667,262.11,135.5,262.806Z" transform="translate(-96.596 -242.72)" fill="#5b5b6c"/>
      <path id="Tracé_369" data-name="Tracé 369" d="M139.818,246.852l.489.144c.212-.72.424-1.427.634-2.116l-.488-.148C140.243,245.422,140.031,246.13,139.818,246.852Z" transform="translate(-97.983 -237.608)" fill="#5b5b6c"/>
      <path id="Tracé_370" data-name="Tracé 370" d="M126.809,300.2l.452.235a22,22,0,0,0,.922-2.035l-.473-.188C127.418,298.944,127.115,299.613,126.809,300.2Z" transform="translate(-93.808 -254.771)" fill="#5b5b6c"/>
      <path id="Tracé_371" data-name="Tracé 371" d="M143.12,236.335l.482.164c.257-.761.5-1.461.729-2.082l-.479-.175C143.625,234.867,143.378,235.572,143.12,236.335Z" transform="translate(-99.043 -234.242)" fill="#5b5b6c"/>
      <path id="Tracé_372" data-name="Tracé 372" d="M141.418,241.578l.486.152c.227-.727.453-1.435.671-2.1l-.484-.158C141.872,240.139,141.646,240.85,141.418,241.578Z" transform="translate(-98.496 -235.919)" fill="#5b5b6c"/>
      <path id="Tracé_373" data-name="Tracé 373" d="M128.908,295.128l.481.165c.231-.673.452-1.387.659-2.123l-.49-.137C129.354,293.759,129.136,294.464,128.908,295.128Z" transform="translate(-94.482 -253.109)" fill="#5b5b6c"/>
      <path id="Tracé_374" data-name="Tracé 374" d="M133.12,273.574l.5.094c.127-.676.273-1.4.432-2.163l-.5-.1C133.394,272.162,133.248,272.894,133.12,273.574Z" transform="translate(-95.833 -246.166)" fill="#5b5b6c"/>
      <path id="Tracé_375" data-name="Tracé 375" d="M130.433,289.854l.494.122c.173-.708.335-1.437.479-2.167l-.5-.1C130.764,288.432,130.6,289.153,130.433,289.854Z" transform="translate(-94.971 -251.4)" fill="#5b5b6c"/>
      <path id="Tracé_376" data-name="Tracé 376" d="M131.534,284.477l.5.084c.122-.73.23-1.469.319-2.2l-.505-.062C131.762,283.023,131.655,283.754,131.534,284.477Z" transform="translate(-95.324 -249.665)" fill="#5b5b6c"/>
      <path id="Tracé_377" data-name="Tracé 377" d="M132.251,279.027l.506.061c.078-.651.185-1.383.317-2.176l-.5-.084C132.438,277.629,132.33,278.369,132.251,279.027Z" transform="translate(-95.555 -247.908)" fill="#5b5b6c"/>
    </g>
    <g id="Groupe_117" data-name="Groupe 117" transform="translate(75.995 162.492)">
      <path id="Tracé_378" data-name="Tracé 378" d="M176.985,273.846a7.031,7.031,0,0,0-2.258.315l.151.487a6.513,6.513,0,0,1,2.094-.293Z" transform="translate(-168.88 -273.844)" fill="#5b5b6c"/>
      <path id="Tracé_379" data-name="Tracé 379" d="M182.152,275.459l.251-.443c-.2-.115-.4-.216-.574-.3a8.389,8.389,0,0,0-1.53-.551l-.124.494a7.878,7.878,0,0,1,1.436.518C181.779,275.256,181.961,275.351,182.152,275.459Z" transform="translate(-170.629 -273.947)" fill="#5b5b6c"/>
      <path id="Tracé_380" data-name="Tracé 380" d="M185.031,323.554l.227.456c.664-.33,1.328-.67,1.975-1.008L187,322.55C186.353,322.888,185.692,323.225,185.031,323.554Z" transform="translate(-172.187 -289.474)" fill="#5b5b6c"/>
      <path id="Tracé_381" data-name="Tracé 381" d="M189.906,320.979l.244.447c.687-.375,1.336-.742,1.931-1.091l-.257-.439C191.233,320.242,190.588,320.606,189.906,320.979Z" transform="translate(-173.751 -288.622)" fill="#5b5b6c"/>
      <path id="Tracé_382" data-name="Tracé 382" d="M194.645,318.143l.272.43a20.509,20.509,0,0,0,1.837-1.28l-.32-.4A19.855,19.855,0,0,1,194.645,318.143Z" transform="translate(-175.272 -287.66)" fill="#5b5b6c"/>
      <path id="Tracé_383" data-name="Tracé 383" d="M166.222,332.879c.458-.318.905-.612,1.334-.877l-.269-.433c-.378.234-.77.492-1.171.766C166.15,332.516,166.186,332.7,166.222,332.879Z" transform="translate(-166.117 -292.368)" fill="#5b5b6c"/>
      <path id="Tracé_384" data-name="Tracé 384" d="M169.815,330.011l.238.45a11.377,11.377,0,0,1,1.982-.85l-.147-.488A11.894,11.894,0,0,0,169.815,330.011Z" transform="translate(-167.304 -291.584)" fill="#5b5b6c"/>
      <path id="Tracé_385" data-name="Tracé 385" d="M189.276,280.446c.515.429,1.08.911,1.678,1.431l.334-.384c-.6-.523-1.169-1.006-1.686-1.438Z" transform="translate(-173.549 -275.837)" fill="#5b5b6c"/>
      <path id="Tracé_386" data-name="Tracé 386" d="M175.006,328.092l.17.48c.587-.208,1.283-.484,2.071-.818l-.2-.469C176.27,327.615,175.583,327.887,175.006,328.092Z" transform="translate(-168.97 -290.994)" fill="#5b5b6c"/>
      <path id="Tracé_387" data-name="Tracé 387" d="M180.069,325.944l.209.464c.646-.291,1.322-.606,2.009-.936l-.22-.459C181.384,325.342,180.711,325.655,180.069,325.944Z" transform="translate(-170.594 -290.265)" fill="#5b5b6c"/>
      <path id="Tracé_388" data-name="Tracé 388" d="M171.849,276c.166-.11.35-.223.549-.332l-.245-.447a8.364,8.364,0,0,0-.928.594C171.432,275.879,171.64,275.941,171.849,276Z" transform="translate(-167.756 -274.286)" fill="#5b5b6c"/>
      <path id="Tracé_389" data-name="Tracé 389" d="M185.244,276.654l-.292.418c.52.363,1.11.807,1.754,1.319l.317-.4C186.371,277.474,185.772,277.023,185.244,276.654Z" transform="translate(-172.161 -274.746)" fill="#5b5b6c"/>
      <path id="Tracé_390" data-name="Tracé 390" d="M216.881,309.893a6.463,6.463,0,0,1-1.776.655l.134.492a6.552,6.552,0,0,0,1.946-.737c.062-.047.124-.1.183-.148l-.335-.383C216.983,309.814,216.932,309.855,216.881,309.893Z" transform="translate(-181.838 -285.373)" fill="#5b5b6c"/>
      <path id="Tracé_391" data-name="Tracé 391" d="M210.256,298.264l-.319.4c.682.547,1.264.985,1.781,1.341l.289-.42C211.5,299.234,210.928,298.8,210.256,298.264Z" transform="translate(-180.179 -281.68)" fill="#5b5b6c"/>
      <path id="Tracé_392" data-name="Tracé 392" d="M214.778,301.34l-.016-.008-.218.46.017.008a8.254,8.254,0,0,1,1.8,1.112l.327-.39A8.782,8.782,0,0,0,214.778,301.34Z" transform="translate(-181.658 -282.665)" fill="#5b5b6c"/>
      <path id="Tracé_393" data-name="Tracé 393" d="M219.05,304.868l-.439.257a2.671,2.671,0,0,1,.336.888,2.247,2.247,0,0,1-.054,1.034l.49.143a2.779,2.779,0,0,0,.067-1.266A3.18,3.18,0,0,0,219.05,304.868Z" transform="translate(-182.963 -283.8)" fill="#5b5b6c"/>
      <path id="Tracé_394" data-name="Tracé 394" d="M210.823,311.727l-1.059.252.12.5,1.057-.251c.378-.09.744-.177,1.094-.261l-.12-.5C211.565,311.551,211.2,311.637,210.823,311.727Z" transform="translate(-180.124 -285.917)" fill="#5b5b6c"/>
      <path id="Tracé_395" data-name="Tracé 395" d="M204.42,313.352l.147.488c.63-.189,1.324-.38,2.121-.584l-.126-.493C205.757,312.968,205.057,313.161,204.42,313.352Z" transform="translate(-178.409 -286.333)" fill="#5b5b6c"/>
      <path id="Tracé_396" data-name="Tracé 396" d="M199.219,315.209l.236.452a15.818,15.818,0,0,1,2-.848l-.17-.48A16.092,16.092,0,0,0,199.219,315.209Z" transform="translate(-176.74 -286.837)" fill="#5b5b6c"/>
      <path id="Tracé_397" data-name="Tracé 397" d="M199.036,288.4l-1.163-1.056-.342.378,1.163,1.055.473.431.342-.378Z" transform="translate(-176.198 -278.176)" fill="#5b5b6c"/>
      <path id="Tracé_398" data-name="Tracé 398" d="M201.61,291.423c.556.5,1.106,1,1.644,1.48l.34-.38c-.538-.48-1.087-.975-1.642-1.478Z" transform="translate(-177.507 -279.364)" fill="#5b5b6c"/>
      <path id="Tracé_399" data-name="Tracé 399" d="M207.726,296.154c-.511-.431-1.057-.9-1.67-1.44l-.336.382c.615.541,1.164,1.014,1.678,1.448Z" transform="translate(-178.826 -280.541)" fill="#5b5b6c"/>
      <path id="Tracé_400" data-name="Tracé 400" d="M195.424,285.135q-.832-.75-1.649-1.474l-.337.382c.542.48,1.092.972,1.645,1.472Z" transform="translate(-174.885 -276.994)" fill="#5b5b6c"/>
    </g>
    <path id="Tracé_401" data-name="Tracé 401" d="M174.726,210.716s-24.108,7.85-37.126,4.333c-.971-.265-8.889-1.867-8.889-1.867s4.468-16.964,3.219-28.23a56.526,56.526,0,0,0-3.144-14.234c-.754-1.915-1.528-3.864-2.289-5.759-2.261-5.609-4.367-10.723-5.3-12.964a10.535,10.535,0,0,1,3.884-1.752.712.712,0,0,1,.075-.007,64.386,64.386,0,0,0,7.782-1.8h.007a41.314,41.314,0,0,0,11.314-5.215l3.26-1.813,3.423-1.908s4.21,1.521,8.584,7.769a28.308,28.308,0,0,1-3.633,3.64,20.038,20.038,0,0,0,3.538,1.779,13.218,13.218,0,0,0,2.37-1.718c2.771,5.134,5.31,12.454,6.553,22.811,1.12,9.405,3.1,20.379,4.557,27.91C173.951,207.089,174.726,210.716,174.726,210.716Z" transform="translate(-75.708 -68.239)" fill="#ff4b87"/>
    <path id="Tracé_402" data-name="Tracé 402" d="M144.951,153.594c-4.468-.38-5.494-2.513-6.451-3.966a41.313,41.313,0,0,0,11.314-5.215l2.137-1.2c.612,0,2.121,1.125,2.121,3.385C154.072,149.633,150.893,154.1,144.951,153.594Z" transform="translate(-81.26 -69.43)" fill="#2c2a40"/>
    <path id="Tracé_403" data-name="Tracé 403" d="M169.053,166.356l7.841-3.511s6.1,9.159,1.126,10.951C172.68,175.722,169.053,166.356,169.053,166.356Z" transform="translate(-91.064 -75.731)" fill="#2c2a40" opacity="0.2"/>
    <path id="Tracé_404" data-name="Tracé 404" d="M144.18,104.489s3.293-2.493,1.943-7.5c0,0-1.1,1.9-2.109,2.09,0,0,2.545-6.89-5.236-10.727,0,0,.911,3.791-.014,5.052,0,0-2.055-4.385-5.1-5.289,0,0,.458,7.684-4.305,9.236-3.4,1.108-7.789,5.054-9,11.54,0,0-1.973-.57-2.709.206,0,0,2.53.426,2.879,2.039a1.81,1.81,0,0,0-1.862.141s1.787.369,2.064,1.767,7.042,12.085,11.123,13.866S144.18,104.489,144.18,104.489Z" transform="translate(-74.568 -51.749)" fill="#2c2a40"/>
    <g id="Groupe_119" data-name="Groupe 119" transform="translate(49.437 49.297)">
      <g id="Groupe_118" data-name="Groupe 118">
        <path id="Tracé_405" data-name="Tracé 405" d="M137.982,142.053l.544,3.135a2.068,2.068,0,0,0,1.51,1.649c6.751,1.76,9.727-2.435,10.062-4.06-.869-.346-16.333-6.6-18.866-12.533C131.232,130.243,132.862,138.216,137.982,142.053Z" transform="translate(-128.365 -114.566)" fill="#f9b587"/>
        <path id="Tracé_406" data-name="Tracé 406" d="M150.363,117.161a8.579,8.579,0,0,1,1.61,4.953L152,127.6a4.752,4.752,0,0,1-3.211,4.519,16.082,16.082,0,0,1-8.484.709c-5.99-1.3-8.856-8.559-8.856-8.559s-2.5-7.524,2.528-12.712a15.713,15.713,0,0,1,10.692-4.394,2.9,2.9,0,0,1,2.644,1.479l1.924,3.435a8.289,8.289,0,0,1,.41.837,8.555,8.555,0,0,1,.676,3.033Z" transform="translate(-128.235 -107.157)" fill="#f9b587"/>
        <path id="Tracé_407" data-name="Tracé 407" d="M146.315,116.506s-4.755-2.009-5.938,1.944l.731.605s1.577-3.021,5.362-1.5Z" transform="translate(-131.299 -109.993)" fill="#2c2a40"/>
        <path id="Tracé_408" data-name="Tracé 408" d="M157.619,119.88a8.485,8.485,0,0,1,1.247,2.533c-.942-.234-2.6-.09-5.427,1.487a6.72,6.72,0,0,1,2.682-2.585.686.686,0,0,0,.268-1.071l-1.965-2.386a2,2,0,0,1,.707-1.144,12.671,12.671,0,0,1,1.77-1.085,8.557,8.557,0,0,1,.676,3.033Z" transform="translate(-135.491 -109.876)" fill="#f39568"/>
        <path id="Tracé_409" data-name="Tracé 409" d="M156.927,114.474a9.3,9.3,0,0,0-1.932,1.227l.242.934a6.606,6.606,0,0,1,2.054-1.211.55.55,0,0,0,.359-.723l0-.01A.529.529,0,0,0,156.927,114.474Z" transform="translate(-135.99 -109.486)" fill="#2c2a40"/>
        <path id="Tracé_410" data-name="Tracé 410" d="M156.038,128.955l-8.474,2.428s2.665,4.043,6.967,2.227C157.9,132.187,156.038,128.955,156.038,128.955Z" transform="translate(-133.606 -114.152)" fill="#fff"/>
        <path id="Tracé_411" data-name="Tracé 411" d="M151.371,141.785s-5.313,1.354-10.8-4.633a8.922,8.922,0,0,0,2.7,6.252c2.946,3.156,9.82,1.59,9.82,1.59Z" transform="translate(-131.36 -116.783)" fill="#f39568"/>
        <path id="Tracé_412" data-name="Tracé 412" d="M131.857,128.867s-2.689-2.331-4.418-.132,2.147,8.406,4.915,5.873S131.857,128.867,131.857,128.867Z" transform="translate(-127.01 -113.779)" fill="#f9b587"/>
      </g>
      <path id="Tracé_413" data-name="Tracé 413" d="M147.224,120.725a2.267,2.267,0,0,0-2.357-.765,2.367,2.367,0,0,0-1.642,2.49A2.65,2.65,0,0,1,147.224,120.725Z" transform="translate(-132.209 -111.228)" fill="#2c2a40"/>
      <path id="Tracé_414" data-name="Tracé 414" d="M156.017,119.655s.7-2.075,2.221-.486A1.575,1.575,0,0,0,156.017,119.655Z" transform="translate(-136.318 -110.82)" fill="#2c2a40"/>
    </g>
    <path id="Tracé_415" data-name="Tracé 415" d="M131.522,116.831a4.5,4.5,0,0,1,.386,5.1l1.735,3.99-1.795.46-1.492-2.213-1.152-5.721S130.595,115.826,131.522,116.831Z" transform="translate(-78.276 -60.89)" fill="#2c2a40"/>
    <path id="Tracé_416" data-name="Tracé 416" d="M185.924,119.628s-.217,1.087-.666,2.811c-1.46,5.569-5.378,17.785-12.454,21.751a20.039,20.039,0,0,1-3.538-1.779c-2.981-1.868-6.716-5.243-6.377-10.349,0,0,6.071-10.084,8.645-17.181.238-.645.441-1.27.611-1.861l11.286,5.412Z" transform="translate(-89.08 -59.741)" fill="#e62f6d"/>
    <path id="Tracé_417" data-name="Tracé 417" d="M190.02,119.628s-.217,1.087-.665,2.811c-2.648-2.051-11.062-6.248-13.724-7.558.238-.645.441-1.27.611-1.861l11.286,5.412Z" transform="translate(-93.175 -59.741)" fill="#2c2a40"/>
    <path id="Tracé_418" data-name="Tracé 418" d="M190.667,122.185s-3.19,16.048-10.753,22.844a37.147,37.147,0,0,0-2.275-3.7c5.753-6.855,9.278-16.5,10.53-20.339Z" transform="translate(-93.82 -62.298)" fill="#2c2a40" opacity="0.2"/>
    <path id="Tracé_419" data-name="Tracé 419" d="M124.493,165.9a21.235,21.235,0,0,1-.469,2.241l-.672,7.646-.761,7.361-.217,2.132c-1.283,1.8-5.63,1.963-9.738,1.664v-.007a74.306,74.306,0,0,1-8.366-1.141s.109-.828.353-2.248a102.058,102.058,0,0,1,4.557-17.344c1.82-4.93,4.421-7.653,6.587-9.141a10.536,10.536,0,0,1,3.884-1.752.715.715,0,0,1,.075-.007C125.308,155.833,125.05,162.366,124.493,165.9Z" transform="translate(-70.275 -73.313)" fill="#e62f6d"/>
    <path id="Tracé_420" data-name="Tracé 420" d="M122.592,196.31l-.217,2.132c-1.283,1.8-5.63,1.963-9.738,1.664V200.1a74.306,74.306,0,0,1-8.366-1.141s.109-.828.353-2.248a49.689,49.689,0,0,0,9.9,1.143A17.951,17.951,0,0,0,122.592,196.31Z" transform="translate(-70.275 -86.47)" fill="#2c2a40"/>
    <path id="Tracé_421" data-name="Tracé 421" d="M156.571,142.616s8.815-1.347,14.412,3.636,11.159,15.433,7.774,21.7l1.371,9.083s9.219-14.481-.672-28.509c-6.656-9.439-15.163-9.67-19.461-9.035a4.613,4.613,0,0,1-2.921,2.841Z" transform="translate(-87.059 -68.169)" fill="#21759b"/>
    <path id="Tracé_422" data-name="Tracé 422" d="M125.267,153.35s2.524-5.766,7.228-5.1,18.788,19.8,15.808,33.876-15.155,15.569-15.155,15.569-2.357-3.573.293-6.9a14.921,14.921,0,0,0,10.16-11.124c2.16-9.162-8.727-27.746-12.726-28.317a3.066,3.066,0,0,0-2.523,1.326S126.659,153.144,125.267,153.35Z" transform="translate(-77.013 -71.029)" fill="#21759b"/>
    <path id="Tracé_423" data-name="Tracé 423" d="M173.249,220.456s-24.112,7.852-37.128,4.33c-.971-.262-8.892-1.863-8.892-1.863s4.473-16.969,3.225-28.234a56.988,56.988,0,0,0-3.145-14.234l-.98,9.5c-1.285,1.794-5.628,1.961-9.737,1.66h0a15.009,15.009,0,0,0,7.265-11.333,22.633,22.633,0,0,1,1.163-5.577,10.682,10.682,0,0,1,3-4.851s.162.257.429.718c1.278,2.183,4.982,8.926,5.415,14.355.527,6.573,2.607,20.573,12.753,28.863,5.645,4.612,24.5,3.888,24.8-2.171,0-.065.007-.126.014-.184C172.473,216.831,173.249,220.456,173.249,220.456Z" transform="translate(-74.229 -77.979)" fill="#2c2a40" opacity="0.2"/>
  </g>
</svg>
