<svg xmlns="http://www.w3.org/2000/svg" width="286.156" height="244.809" viewBox="0 0 286.156 244.809">
  <g id="Groupe_5861" data-name="Groupe 5861" transform="translate(-104.001 -75.944)">
    <g id="Groupe_694" data-name="Groupe 694" transform="translate(104.001 101.222)">
      <path id="Tracé_256" data-name="Tracé 256" d="M308.389,168.626C302.306,145,280.1,146.467,259.063,150.851c-11.317,2.358-27.164,5.622-43.7.8-35.594-10.372-76.522-12.963-96.691,0s-32.293,28.583-26.478,50.4,20.591,41.441,8.025,53.12-12.354,55.911,39.314,59.356,46.544-46.14,80.666-43.838,104.168,35.868,107.127,11.533-35.045-41.693-21.421-82.1C308.608,192.107,311.169,179.425,308.389,168.626Z" transform="translate(-53.701 -115.292)" fill="#ffebf2"/>
      <g id="Groupe_100" data-name="Groupe 100" transform="translate(0 0)">
        <path id="Tracé_257" data-name="Tracé 257" d="M236.293,116.922s1.319-8.474,5.035-8.144c1.028.092,1.728,1.133,2.186,2.253a.78.78,0,0,0,1.474-.075c.983-3.443,2.993-8.7,6.109-8.7,3.222,0,3.329,6.013,3.1,9.675a.542.542,0,0,0,.99.339c.85-1.251,2.09-2.452,3.6-2.1,2.938.678,2.147,6.755,2.147,6.755Z" transform="translate(-100.413 -102.257)" fill="#ffebf2"/>
        <path id="Tracé_258" data-name="Tracé 258" d="M36.2,234.27s1.319-8.474,5.035-8.144c1.029.092,1.728,1.134,2.186,2.253A.78.78,0,0,0,44.9,228.3c.983-3.443,2.993-8.7,6.109-8.7,3.223,0,3.329,6.013,3.1,9.675a.543.543,0,0,0,.991.34c.85-1.252,2.09-2.452,3.6-2.1,2.938.678,2.147,6.754,2.147,6.754Z" transform="translate(-36.2 -139.916)" fill="#ffebf2"/>
        <path id="Tracé_259" data-name="Tracé 259" d="M421.164,184.416s1.319-8.474,5.035-8.144c1.028.092,1.728,1.134,2.186,2.253a.78.78,0,0,0,1.474-.075c.983-3.443,2.993-8.7,6.109-8.7,3.222,0,3.329,6.013,3.1,9.675a.543.543,0,0,0,.99.34c.85-1.252,2.09-2.452,3.6-2.1,2.938.678,2.147,6.754,2.147,6.754Z" transform="translate(-159.74 -123.917)" fill="#ffebf2"/>
      </g>
    </g>
    <g id="Groupe_696" data-name="Groupe 696" transform="translate(128.722 75.944)">
      <g id="Groupe_124" data-name="Groupe 124" transform="translate(103.865)">
        <path id="Tracé_424" data-name="Tracé 424" d="M1692.773,1163.555c-2.5,2.727-6.258,5.539-.288,11.778,7.654,7.993,19.494,42.441,19.494,42.441-.406,1.316.011,3.142-.925,3.679-1.514.868-5.38-1.782-5.38-1.782s-35.157-36.418-38.009-44.607c-2.106-6.045,8.66-35.337,15.1-50.683,2.281-5.437,4.021-9.124,4.454-9.41.066-.044.133-.087.2-.126a9.533,9.533,0,0,1,10.537-.253,15.512,15.512,0,0,1,1.986,1.38c7.865,6.38,12.918,21.518,12.395,24.665-.364,2.19-4.2,6.829-8.411,11.4-.874.948-1.765,1.893-2.643,2.812C1697.456,1158.857,1693.847,1162.385,1692.773,1163.555Z" transform="translate(-1633.067 -1001.563)" fill="#0862b2"/>
        <path id="Tracé_425" data-name="Tracé 425" d="M1765.89,1157.758c-.874.948-1.764,1.893-2.643,2.812l-18.518-30.463c2.282-5.437,4.021-9.123,4.454-9.41.066-.044.133-.087.2-.126l10.537-.253,1.9-.044.082,1.425Z" transform="translate(-1695.03 -1007.289)" fill="#004074"/>
        <path id="Tracé_426" data-name="Tracé 426" d="M1579.473,775.206s3.939,9.627,2.918,15.357-14.582,34.272-19.525,39.157-37.715-15.894-37.715-15.894l3.225-3.081s25.924,6.6,27.3,4.529S1563.642,772.531,1579.473,775.206Z" transform="translate(-1519.094 -730.704)" fill="#f9b587"/>
        <path id="Tracé_427" data-name="Tracé 427" d="M1794.552,1126.575s6.725,33.623,23.692,57.279c16.4,22.861,24.927,57.9,24.927,57.9s1.088.849,3.231-.06,3.579.194,4.01-.847c0,0-3.1-55.3-11.606-67.411-4.808-6.841-7.371-31.954-7.208-38.789s-2.827-15.211-2.827-15.211Z" transform="translate(-1734.95 -1006.614)" fill="#004883"/>
        <g id="Groupe_122" data-name="Groupe 122" transform="translate(87.377 229.841)">
          <path id="Tracé_428" data-name="Tracé 428" d="M1962.222,1722.534l-3.967.028c-1.331-.2-2.314-.578-3.679-.746a3.679,3.679,0,0,0-3.207.794.46.46,0,0,0-.036.04l-16.853.118c-.428-.6-.031-2.008.36-3.042a2.4,2.4,0,0,1,1.568-1.454c1.783-.53,5.3-1.015,8.509-3.959,1.8-1.653,8.723-6.093,8.723-6.093l.037-.009c.153,0,.881.22,4.061,2.867,1.644,1.366,4.406-1.976,4.406-1.976a3.968,3.968,0,0,1,.922,1.232,4.188,4.188,0,0,1,.38,2.584c-.241,1.52.59,4.337,1.251,6.24.4,1.154.738,1.972.738,1.972S1965.632,1722.083,1962.222,1722.534Z" transform="translate(-1934.295 -1708.212)" fill="#e7004c"/>
          <path id="Tracé_429" data-name="Tracé 429" d="M2041.056,1710.335a12.579,12.579,0,0,1-4.258,2.185c-1.788.247-5.168-4.3-5.168-4.3l.037-.009c.153,0,.881.22,4.061,2.867,1.644,1.366,4.406-1.976,4.406-1.976A3.971,3.971,0,0,1,2041.056,1710.335Z" transform="translate(-2012.284 -1708.212)" fill="#233862"/>
          <path id="Tracé_430" data-name="Tracé 430" d="M1962.222,1766.669l-3.967.028c-1.331-.2-2.314-.578-3.679-.746a3.679,3.679,0,0,0-3.207.794.479.479,0,0,0-.036.04l-16.853.118c-.428-.6-.031-2.008.36-3.042.509-.459.67,1.972.956,2.357s13.749.045,14.522-.526a8.132,8.132,0,0,1,6.357-.822c2.835.656,6.994-1.107,8.022-1.575.4,1.154.738,1.972.738,1.972S1965.632,1766.218,1962.222,1766.669Z" transform="translate(-1934.295 -1752.347)" fill="#233862"/>
        </g>
        <path id="Tracé_431" data-name="Tracé 431" d="M1749.857,802.082c.014-18.852-3.436-46.059-8.153-48.149a57.155,57.155,0,0,0-21.751-4.177c-7.109.108-22.263,3.431-23.8,15.179-.975,7.436-1.37,13.563-1.37,13.563s1.629,4.745,6.123,6.019c.559,2.1.816,4.183,1.485,5.944,7.462,19.654,3.8,39.319,3.8,39.319,6.869,5.713,41.053,2.367,44.5.121C1756.292,826.243,1749.843,820.934,1749.857,802.082Z" transform="translate(-1655.007 -710.41)" fill="#f53a79"/>
        <g id="Groupe_123" data-name="Groupe 123" transform="translate(64.746 211.276)">
          <path id="Tracé_432" data-name="Tracé 432" d="M1842.343,1624.459l-2.846,2.764c-1.1.776-2.071,1.184-3.173,2a3.679,3.679,0,0,0-1.767,2.792.5.5,0,0,0,0,.054l-12.091,11.741c-.726-.139-1.411-1.429-1.844-2.447a2.4,2.4,0,0,1,.127-2.134c.922-1.616,3.128-4.4,3.408-8.744.16-2.441,2.087-10.434,2.087-10.434l.021-.032c.112-.1.788-.45,4.916-.738,2.132-.151,1.815-4.475,1.815-4.475a3.967,3.967,0,0,1,1.518.252,4.187,4.187,0,0,1,2.062,1.6c.877,1.265,3.426,2.724,5.22,3.642,1.087.556,1.9.914,1.9.914S1844.494,1621.775,1842.343,1624.459Z" transform="translate(-1820.432 -1614.808)" fill="#e7004c"/>
          <path id="Tracé_433" data-name="Tracé 433" d="M1857.954,1615.064a12.584,12.584,0,0,1-1.564,4.522c-1.121,1.415-6.706.469-6.706.469l.021-.032c.112-.1.789-.45,4.916-.738,2.132-.151,1.815-4.475,1.815-4.475A3.968,3.968,0,0,1,1857.954,1615.064Z" transform="translate(-1843.87 -1614.808)" fill="#233862"/>
          <path id="Tracé_434" data-name="Tracé 434" d="M1843.116,1646.64l-2.846,2.764c-1.1.776-2.071,1.184-3.173,2a3.678,3.678,0,0,0-1.767,2.792.5.5,0,0,0,0,.054L1823.241,1666c-.726-.139-1.411-1.429-1.844-2.447.05-.683,1.847.961,2.32,1.042s9.962-9.477,10.126-10.424a8.133,8.133,0,0,1,4.023-4.99c2.5-1.487,4.286-5.636,4.706-6.686,1.088.556,1.9.914,1.9.914S1845.267,1643.956,1843.116,1646.64Z" transform="translate(-1821.205 -1636.989)" fill="#233862"/>
        </g>
        <path id="Tracé_435" data-name="Tracé 435" d="M1876.467,783.3s10.4-.113,15.351,2.949,26.484,26.188,29.2,32.584-22.272,24.632-22.272,24.632l-3.523-5.609s11.133-15.622,9.715-17.66S1868.145,797.034,1876.467,783.3Z" transform="translate(-1799.569 -737.294)" fill="#f9b587"/>
        <path id="Tracé_436" data-name="Tracé 436" d="M1941.848,1053.465l4.151,3.2s-3.651,7.882-5.644,8.622l-.206.041c-2.142.428-7.462-3.049-8.351-6.64a1.994,1.994,0,0,1,.05-1.038c.822-2.173,5.809-3.407,8.416-3.911C1941.213,1053.552,1941.848,1053.465,1941.848,1053.465Z" transform="translate(-1844.88 -953.759)" fill="#f9b587"/>
        <path id="Tracé_437" data-name="Tracé 437" d="M1506.819,923.071l-2.079,4.809s-8.537-1.6-9.745-3.352l-.09-.19c-.941-1.971,1.122-7.983,4.385-9.727a1.994,1.994,0,0,1,1.018-.207c2.308.263,4.73,4.793,5.859,7.2C1506.579,922.477,1506.819,923.071,1506.819,923.071Z" transform="translate(-1494.676 -842.333)" fill="#f9b587"/>
        <path id="Tracé_438" data-name="Tracé 438" d="M1857.027,752.4s9.646.434,16.57,4.732c3.189,1.98,15.439,13.588,15.439,13.588s-1.358,12.127-15.949,15.415c-14.852,3.347-17.238-21.475-17.238-21.475Z" transform="translate(-1784.065 -712.532)" fill="#e62f6d"/>
        <path id="Tracé_439" data-name="Tracé 439" d="M1778.332,682.4a2.067,2.067,0,0,1,.038,2.267c-1.294,2.053-4.92,5.6-14.365,4.954-3.236-.223-3.978-2.67-1.93-5.186.5-.613.33-4.136.276-5.549a46.042,46.042,0,0,1-.065-5.1l6.692-4.581,6.349-4.388C1774.282,675.075,1776.994,680.438,1778.332,682.4Z" transform="translate(-1708.013 -642.354)" fill="#f9b587"/>
        <path id="Tracé_440" data-name="Tracé 440" d="M1780.393,687.655s-4.67,7.318-12.743,8.916a45.965,45.965,0,0,1-.065-5.1l6.692-4.581Z" transform="translate(-1713.311 -660.041)" fill="#ed985f"/>
        <path id="Tracé_441" data-name="Tracé 441" d="M1743.434,606.133s15.556,3.615,17.673-5.955,5.551-15.549-4.292-18.262-12.587.52-14.083,3.543S1739.442,604.946,1743.434,606.133Z" transform="translate(-1692.046 -575.117)" fill="#f9b587"/>
        <path id="Tracé_442" data-name="Tracé 442" d="M1751.377,558.2c.154-.154.491-.264,1.227-.256a2.981,2.981,0,0,0-1.344-.476c-.086-1.029-.509-2.869-2.233-3.423a2.2,2.2,0,0,1,.961,1.656c-1.893-2.221-6.145-4.028-18.26-3.876-15.968.2-11.407,10.718-9.431,12.067s7.373-1.632,11.184-1.074,4.173,6.143,5.422,6.989.827-.531,2.639-1.21,1.785,2.247,1.152,4.108,1.617,4.52,1.617,4.52l2.616-2.468c2.616-2.468,5.656-13.454,4.7-15.9C1751.545,558.637,1751.463,558.418,1751.377,558.2Z" transform="translate(-1675.337 -551.814)"/>
        <path id="Tracé_443" data-name="Tracé 443" d="M1746.494,676.858a2.4,2.4,0,0,0,2,1.6,3.262,3.262,0,0,0,2.608-.939S1748.517,676.317,1746.494,676.858Z" transform="translate(-1696.444 -651.893)" fill="#fff"/>
      </g>
      <g id="Groupe_126" data-name="Groupe 126" transform="translate(0 24.048)">
        <path id="Tracé_444" data-name="Tracé 444" d="M1192.422,1138.907v.035c0,.018,0,.043,0,.072-.082,3.2-.31,6.539-.637,9.915-.473,4.864-1.153,9.792-1.905,14.445v.01q-.2,1.211-.4,2.4c-.107.651-.218,1.3-.333,1.929q-.385,2.173-.773,4.211c-.212,1.112-.423,2.191-.631,3.224-1.333,6.646-2.519,11.562-2.885,13.031,0,0,0,0,0,.008a4.4,4.4,0,0,0,.4,1.506c3.678,8.454,2.828,11.856,2.088,20.1a220.981,220.981,0,0,1-5.343,31.493l-6.519,6.128s2.063-11.417-.483-31.9a206.984,206.984,0,0,0-3.942-21.777c-2.114-9.011-7.223-32.454-7.852-49.7-.066-1.788.473-19.784,3.948-27.079.9-1.893,7.976,2.589,7.976,2.589l7.273.056,7.248.055c.057.111.115.224.171.339a29.284,29.284,0,0,1,2.345,9.78A77.82,77.82,0,0,1,1192.422,1138.907Z" transform="translate(-1125.217 -1028.308)" fill="#0862b2"/>
        <path id="Tracé_445" data-name="Tracé 445" d="M1210.634,1151.448v.035c0,.018,0,.043,0,.072-.082,3.2-.31,6.539-.637,9.915-.472,4.864-1.153,9.792-1.9,14.445v.01q-.2,1.212-.4,2.4c-.107.651-.218,1.3-.333,1.929q-.385,2.173-.773,4.211c-.212,1.112-.423,2.191-.631,3.224,0,0-19.82-46.831-20.026-47.448l14.683-8.092,7.248.056c.058.111.115.224.171.339a29.273,29.273,0,0,1,2.345,9.78A77.689,77.689,0,0,1,1210.634,1151.448Z" transform="translate(-1143.429 -1040.849)" fill="#004074"/>
        <path id="Tracé_446" data-name="Tracé 446" d="M1174.764,1743.981s.008-.01.025-.027a2.5,2.5,0,0,1,2.185-.51c.925.127,1.589.392,2.491.54l2.694.017c2.32-.275,2.2-.923,2.2-.923s-.221-.559-.483-1.345a11.393,11.393,0,0,1-.793-4.249,2.847,2.847,0,0,0-.235-1.759,2.689,2.689,0,0,0-.615-.844s-1.906,2.244-3.01,1.3c-2.136-1.826-2.628-1.981-2.732-1.984l-.025.006s-4.739,2.952-5.979,4.059a12.342,12.342,0,0,1-5.815,2.612,1.628,1.628,0,0,0-1.078.973c-.275.7-.558,1.65-.272,2.063Z" transform="translate(-1125.217 -1523.239)" fill="#e7004c"/>
        <path id="Tracé_447" data-name="Tracé 447" d="M1031.919,864.359s-4.543,28.859-11.867,39.9c-3.683,5.554-29.093-15.938-29.093-15.938l2.926-1.743s19.9,9.742,20.55,8.619,2.858-24.242,6.847-27.486S1031.919,864.359,1031.919,864.359Z" transform="translate(-987.211 -826.287)" fill="#f9b587"/>
        <path id="Tracé_448" data-name="Tracé 448" d="M1171.154,697.483s-5.745-.337-8.326-9.534c-2-7.114,2-15.873,12.263-15.094,0,0,6.786-.663,9.123,4.905,1.032,2.461,2.712,3.433-.26,12.5l-.726,3.043Z" transform="translate(-1124.521 -672.807)"/>
        <path id="Tracé_449" data-name="Tracé 449" d="M1256.351,754.494s3.485,4.082,7.448,3.31,11.814-3.334,14.854.281-1.212,11.852,1.79,14.933.588,12.526-13.132,9.387-13.238-18.315-12.986-20.394A65.352,65.352,0,0,1,1256.351,754.494Z" transform="translate(-1198.167 -738.258)"/>
        <path id="Tracé_450" data-name="Tracé 450" d="M1283.034,1181.382l-.615,4.14s-16.465-5.109-34.914-10c-5.819-1.545-11.834-3.066-17.594-4.4-5.9-1.366-23.413-76.679-23.413-76.679s25.889-2.593,32.593,10.128c10.484,19.9-1.26,53.33,6.947,54.564a29.552,29.552,0,0,1,6.007,1.65C1266.238,1166.159,1283.034,1181.382,1283.034,1181.382Z" transform="translate(-1159.91 -1010.463)" fill="#004883"/>
        <path id="Tracé_451" data-name="Tracé 451" d="M1156.021,845.359s7.943-3.818,15.648-4.391,16.841.348,18.847,2.387c1.039,1.055,4.421,9.345,2.979,15.94-1.63,7.454-2.211,11.084-2.338,15.782-.251,9.236,2.52,14.165,6.222,24.564,2.43,6.825-22.655,21.1-40.9,7.512.581-7.564,3.3-25.761,1.321-29.124C1152.067,868.3,1152.267,848.035,1156.021,845.359Z" transform="translate(-1117.308 -807.411)" fill="#ff4b87"/>
        <path id="Tracé_452" data-name="Tracé 452" d="M1312.7,853.918s19.1,21.859,21.191,28.187-26.968,18.916-26.968,18.916l-1.215-4.577s16.7-13.426,16.2-14.626-12.828-12.268-12.989-17.407S1312.7,853.918,1312.7,853.918Z" transform="translate(-1239.404 -817.921)" fill="#f9b587"/>
        <path id="Tracé_453" data-name="Tracé 453" d="M1202.571,796.245c-7.6.239-4.693-3.51-3.719-4.845a2.174,2.174,0,0,0,.307-.6c.531-1.61.483-4.817.332-6.99-.163-2.333-.472-4.775-.577-5.591v0c-.026-.184-.039-.284-.039-.284l9.515-2.554,1.7,3.029.354.636a33.021,33.021,0,0,0,.907,5.018,11.2,11.2,0,0,0,1.867,4.354C1213.745,788.98,1214.134,795.881,1202.571,796.245Z" transform="translate(-1152.691 -754.994)" fill="#f9b587"/>
        <path id="Tracé_454" data-name="Tracé 454" d="M1217.082,793.29c-7.292-.181-12.3-5.7-12.434-5.843l0,0h0c3.011-.931,7.409-.549,11.172.191l.354.636A33.057,33.057,0,0,0,1217.082,793.29Z" transform="translate(-1158.426 -764.22)" fill="#ed975d"/>
        <g id="Groupe_125" data-name="Groupe 125" transform="translate(40.491 3.65)">
          <path id="Tracé_455" data-name="Tracé 455" d="M1209.126,721.487s-12.756,1.062-13.295-6.892-2.548-13.174,5.573-14.188,9.911,1.914,10.737,4.525S1212.43,721.005,1209.126,721.487Z" transform="translate(-1191.362 -698.405)" fill="#f9b587"/>
          <path id="Tracé_456" data-name="Tracé 456" d="M1191.67,692.587s-2.874,9.565-8.148,11.3-7.7.455-7.7.455a15.229,15.229,0,0,0,4.372-9.308S1188.736,688.321,1191.67,692.587Z" transform="translate(-1175.824 -691.169)"/>
          <path id="Tracé_457" data-name="Tracé 457" d="M1251.442,695.649s2.75,1.91,3.522,3.893,1.336,6.134,2.542,5.911c0,0,2.211-6.519-.988-9.909C1253.125,691.947,1251.442,695.649,1251.442,695.649Z" transform="translate(-1236.412 -693.415)" fill="#233862"/>
          <path id="Tracé_458" data-name="Tracé 458" d="M1248.007,784.717s.522,1.063,1.32,1.086a10.833,10.833,0,0,0,2.993-.318,9.962,9.962,0,0,0,.564-1.287S1249.533,784.061,1248.007,784.717Z" transform="translate(-1233.66 -765.698)" fill="#fff"/>
        </g>
        <path id="Tracé_459" data-name="Tracé 459" d="M1315.43,849.446s6.28,2.193,11.359,11.124c0,0-.913,5.949-8.753,10.11s-7.081-12.582-7.081-12.582Z" transform="translate(-1243.589 -814.338)" fill="#f53a79"/>
        <path id="Tracé_460" data-name="Tracé 460" d="M1130.378,861.193s-6.109,2.531-7.125,5.06c-1.553,3.867-3.335,10.26-3.335,10.26s2.488,5.968,10.916,7.473C1138.73,885.4,1130.378,861.193,1130.378,861.193Z" transform="translate(-1090.538 -823.75)" fill="#f53a79"/>
        <path id="Tracé_461" data-name="Tracé 461" d="M1280.78,1065.131l2.867,2.664s-3.259,5.61-4.793,6.024l-.156.017c-1.623.17-5.34-2.783-5.753-5.515a1.491,1.491,0,0,1,.109-.769c.761-1.559,4.555-2.133,6.529-2.328C1280.3,1065.152,1280.78,1065.131,1280.78,1065.131Z" transform="translate(-1213.142 -987.154)" fill="#f9b587"/>
        <path id="Tracé_462" data-name="Tracé 462" d="M980.454,955.069l-1.037,3.129a28.945,28.945,0,0,1-5.263-1.03c-.751-.265-1.831-1.018-1.956-1.8-.276-1.735-.036-5.033,1.564-6.268a1.489,1.489,0,0,1,.725-.278C976.219,948.727,980.454,955.069,980.454,955.069Z" transform="translate(-972.1 -893.959)" fill="#f9b587"/>
        <path id="Tracé_463" data-name="Tracé 463" d="M1579,1510.2a.37.37,0,0,1-.03-.022,2.5,2.5,0,0,1-.759-2.111c.019-.933.206-1.624.249-2.537l-.294-2.678c-.541-2.273-1.17-2.074-1.17-2.074s-.529.284-1.281.635a11.4,11.4,0,0,1-4.129,1.279,2.844,2.844,0,0,0-1.72.436,2.69,2.69,0,0,0-.768.708s2.45,1.634,1.641,2.839c-1.568,2.332-1.665,2.839-1.655,2.943l.008.024s3.48,4.366,4.722,5.47a12.345,12.345,0,0,1,3.266,5.474,1.627,1.627,0,0,0,1.09.958c.726.193,1.7.364,2.081.032Z" transform="translate(-1450.427 -1336.207)" fill="#e7004c"/>
      </g>
    </g>
  </g>
</svg>
