<svg xmlns="http://www.w3.org/2000/svg" xmlns:xlink="http://www.w3.org/1999/xlink" width="311.491" height="250.94" viewBox="0 0 311.491 250.94">
  <defs>
    <clipPath id="clip-path">
      <rect x="62" y="-43.403" width="247.92" height="148.539" fill="none"/>
    </clipPath>
    <linearGradient id="linear-gradient" x1="0.5" x2="0.5" y2="1" gradientUnits="objectBoundingBox">
      <stop offset="0" stop-color="#ffebf2"/>
      <stop offset="0.7" stop-color="#ffebf2" stop-opacity="0.537"/>
      <stop offset="1" stop-color="#fff" stop-opacity="0"/>
    </linearGradient>
    <linearGradient id="linear-gradient-2" x1="0.5" x2="0.5" y2="1" gradientUnits="objectBoundingBox">
      <stop offset="0" stop-color="#fdcbd4"/>
      <stop offset="0.7" stop-color="#fedde3" stop-opacity="0.918"/>
      <stop offset="1" stop-color="#fff" stop-opacity="0"/>
    </linearGradient>
    <linearGradient id="linear-gradient-3" x1="0.706" y1="-7.004" x2="1.811" y2="-45.269" gradientUnits="objectBoundingBox">
      <stop offset="0" stop-color="#09005d"/>
      <stop offset="1" stop-color="#1a0f91"/>
    </linearGradient>
    <linearGradient id="linear-gradient-4" x1="32.038" y1="-0.852" x2="31.599" y2="2.399" gradientUnits="objectBoundingBox">
      <stop offset="0" stop-color="#febbba"/>
      <stop offset="1" stop-color="#ff928e"/>
    </linearGradient>
    <linearGradient id="linear-gradient-5" x1="0.55" y1="-2.168" x2="1.302" y2="-38.824" xlink:href="#linear-gradient-3"/>
    <linearGradient id="linear-gradient-6" x1="32.488" y1="-0.231" x2="32.041" y2="2.553" xlink:href="#linear-gradient-4"/>
    <linearGradient id="linear-gradient-7" x1="17.978" y1="-0.673" x2="16.929" y2="2.531" xlink:href="#linear-gradient-4"/>
    <linearGradient id="linear-gradient-8" x1="-36.239" y1="-10.478" x2="-37.682" y2="-9.185" xlink:href="#linear-gradient-4"/>
    <linearGradient id="linear-gradient-9" x1="-96.781" y1="-27.952" x2="-93.942" y2="-30.234" xlink:href="#linear-gradient-4"/>
    <linearGradient id="linear-gradient-10" x1="15.377" y1="-2.358" x2="14.261" y2="5.504" xlink:href="#linear-gradient-4"/>
    <linearGradient id="linear-gradient-11" x1="8.34" y1="-2.257" x2="6.478" y2="5.323" xlink:href="#linear-gradient-4"/>
    <linearGradient id="linear-gradient-12" x1="-25.155" y1="1.605" x2="-24.262" y2="-1.187" xlink:href="#linear-gradient-4"/>
    <linearGradient id="linear-gradient-13" x1="-9.083" y1="1.691" x2="-8.685" y2="-1.184" xlink:href="#linear-gradient-4"/>
    <linearGradient id="linear-gradient-14" x1="-33.553" y1="1.849" x2="-33.334" y2="0.804" xlink:href="#linear-gradient-4"/>
    <linearGradient id="linear-gradient-15" x1="-17.685" y1="-3.202" x2="-16.231" y2="-5.365" xlink:href="#linear-gradient-4"/>
    <linearGradient id="linear-gradient-16" x1="-73.734" y1="-10.462" x2="-67.569" y2="-17.334" xlink:href="#linear-gradient-4"/>
    <linearGradient id="linear-gradient-17" x1="-4.603" y1="0.045" x2="-5.689" y2="1.364" xlink:href="#linear-gradient-4"/>
    <linearGradient id="linear-gradient-18" x1="-0.153" y1="1.314" x2="0.916" y2="0.011" xlink:href="#linear-gradient-4"/>
    <linearGradient id="linear-gradient-19" x1="-2.536" y1="1.287" x2="-2.965" y2="0.464" gradientUnits="objectBoundingBox">
      <stop offset="0"/>
      <stop offset="1"/>
    </linearGradient>
    <linearGradient id="linear-gradient-20" x1="-12.642" y1="-0.355" x2="-11.783" y2="0.906" xlink:href="#linear-gradient-3"/>
    <linearGradient id="linear-gradient-21" x1="50.442" y1="-103.593" x2="47.45" y2="-98.663" gradientUnits="objectBoundingBox">
      <stop offset="0" stop-color="#a22b25"/>
      <stop offset="1" stop-color="#c0423c"/>
    </linearGradient>
    <linearGradient id="linear-gradient-22" x1="0.244" y1="0.732" x2="1.977" y2="-0.435" xlink:href="#linear-gradient-4"/>
    <linearGradient id="linear-gradient-23" x1="-13.001" y1="-3.808" x2="-15.635" y2="1.722" xlink:href="#linear-gradient-4"/>
  </defs>
  <g id="Groupe_5852" data-name="Groupe 5852" transform="translate(-99.394 -79.302)">
    <g id="Groupe_694" data-name="Groupe 694" transform="translate(104.001 101.222)">
      <path id="Tracé_256" data-name="Tracé 256" d="M308.389,168.626C302.306,145,280.1,146.467,259.063,150.851c-11.317,2.358-27.164,5.622-43.7.8-35.594-10.372-76.522-12.963-96.691,0s-32.293,28.583-26.478,50.4,20.591,41.441,8.025,53.12-12.354,55.911,39.314,59.356,46.544-46.14,80.666-43.838,104.168,35.868,107.127,11.533-35.045-41.693-21.421-82.1C308.608,192.107,311.169,179.425,308.389,168.626Z" transform="translate(-53.701 -115.292)" fill="#ffebf2"/>
      <g id="Groupe_100" data-name="Groupe 100" transform="translate(0 0)">
        <path id="Tracé_257" data-name="Tracé 257" d="M236.293,116.922s1.319-8.474,5.035-8.144c1.028.092,1.728,1.133,2.186,2.253a.78.78,0,0,0,1.474-.075c.983-3.443,2.993-8.7,6.109-8.7,3.222,0,3.329,6.013,3.1,9.675a.542.542,0,0,0,.99.339c.85-1.251,2.09-2.452,3.6-2.1,2.938.678,2.147,6.755,2.147,6.755Z" transform="translate(-100.413 -102.257)" fill="#ffebf2"/>
        <path id="Tracé_258" data-name="Tracé 258" d="M36.2,234.27s1.319-8.474,5.035-8.144c1.029.092,1.728,1.134,2.186,2.253A.78.78,0,0,0,44.9,228.3c.983-3.443,2.993-8.7,6.109-8.7,3.223,0,3.329,6.013,3.1,9.675a.543.543,0,0,0,.991.34c.85-1.252,2.09-2.452,3.6-2.1,2.938.678,2.147,6.754,2.147,6.754Z" transform="translate(-36.2 -139.916)" fill="#ffebf2"/>
        <path id="Tracé_259" data-name="Tracé 259" d="M421.164,184.416s1.319-8.474,5.035-8.144c1.028.092,1.728,1.134,2.186,2.253a.78.78,0,0,0,1.474-.075c.983-3.443,2.993-8.7,6.109-8.7,3.222,0,3.329,6.013,3.1,9.675a.543.543,0,0,0,.99.34c.85-1.252,2.09-2.452,3.6-2.1,2.938.678,2.147,6.754,2.147,6.754Z" transform="translate(-159.74 -123.917)" fill="#ffebf2"/>
      </g>
    </g>
    <g id="Groupe_5851" data-name="Groupe 5851">
      <g id="Groupe_défilant_6" data-name="Groupe défilant 6" transform="translate(37.394 148.326)" clip-path="url(#clip-path)" style="isolation: isolate">
        <path id="Tracé_1270" data-name="Tracé 1270" d="M273.554,365.235V354.82h-6.776v-2.005H262.62v-1.1H261.6a4.529,4.529,0,0,0-3.84-4.1c.792.58,1.363,2.157,1.428,4.1h-.373c-.082-2.39-.931-3.971-1.73-3.971s-1.648,1.581-1.73,3.971h-.373c.066-1.945.637-3.522,1.428-4.1a4.529,4.529,0,0,0-3.84,4.1h-1.019v1.1h-3.845v2.005H245.05v-9h.85V343.7h-.85v-3.115h1.093a2.245,2.245,0,0,0-1.828-2.205v-.947h-.206v-.975h-.425v.975h-.205v.947a2.245,2.245,0,0,0-1.828,2.205h1.093V343.7h-.85v2.124h.85v9h-2.315v-2.532H238.17V338.76h-13.8v5.019h-2.509v-9.034h-1.38v-1.757H202.912v1.757h-1.38v9.034h-12.3v1.506h-2.007v11.042H186.1V325.134l-2.081,4.316-2.082-4.316-2.081,4.317-2.082-4.317-2.081,4.316-2.082-4.316-2.081,4.316-2.082-4.316-2.081,4.316-2.082-4.316-2.082,4.316-2.081-4.316-2.081,4.317-2.082-4.317-2.082,4.317-2.082-4.317-.9,1.87V272.61h0v-4.488l-2.165,4.488h-.014l-2.165-4.488v4.488h0V252.585h-1.186a6.158,6.158,0,0,0-5.1-4.987c1.179.676,2.058,2.581,2.265,4.987h-.377c-.244-2.7-1.37-4.771-2.739-4.871a1.989,1.989,0,0,0,.483-3.89,1.608,1.608,0,0,0-.135-3.047,1.252,1.252,0,0,0,.041-2.323l-.491-4.316-.491,4.316a1.252,1.252,0,0,0,.041,2.323,1.608,1.608,0,0,0-.135,3.047,1.989,1.989,0,0,0,.482,3.89c-1.369.1-2.495,2.166-2.738,4.871h-.377c.207-2.405,1.086-4.311,2.264-4.987a6.158,6.158,0,0,0-5.1,4.987h-1.186V272.61h0v-4.488L130.9,272.61h-.015l-2.164-4.488v4.488h0V327l-.9-1.87-2.081,4.316-2.082-4.316-2.081,4.317-2.082-4.317-2.081,4.316-2.082-4.316-2.082,4.317-2.081-4.317-2.082,4.316L107,325.134l-2.081,4.316-2.082-4.316-2.081,4.316-2.082-4.316L96.6,329.451l-2.082-4.316v4.323h0v28.274H90.888v1.674H86.973v1.564H84.9v-8.1h.85v-2.124H84.9v-3.642h1.093a2.246,2.246,0,0,0-1.828-2.205v-.947h-.206v-.975h-.425v.975h-.206v.947a2.245,2.245,0,0,0-1.828,2.205H82.59v3.642h-.85v2.124h.85v8.1H80.072v-2.2H77.814V345.284h-13.8V349.8H61.053v-8.533H40.224V349.8h-12.1v1.756H26.394v10.791H24.612v-6.023H16.331v3.764H12.567v4.643H1.274v17.943h278.3V365.235ZM142.19,304.7c.408,0,.738,2.154.741,4.818H141.45C141.453,306.849,141.783,304.7,142.19,304.7Zm-.74-22.729c0-2.664.333-4.818.74-4.818s.738,2.154.741,4.818ZM138.423,304.7c.407,0,.737,2.154.74,4.818h-1.482C137.685,306.849,138.015,304.7,138.423,304.7Zm-.742-22.729c0-2.664.333-4.818.742-4.818s.737,2.154.74,4.818Zm6.744,27.547c0-2.664.334-4.818.741-4.818s.738,2.154.741,4.818Zm0-27.547c0-2.664.334-4.818.741-4.818s.738,2.154.741,4.818Zm-2.85-15.4c.005-4.527.567-8.187,1.259-8.187s1.253,3.66,1.259,8.187Zm-3.8-8.187c.692,0,1.254,3.66,1.259,8.187h-2.519C136.523,262.038,137.086,258.378,137.778,258.378Zm-1.59,23.588h-1.482c0-2.664.334-4.818.741-4.818S136.185,279.3,136.187,281.966Zm-.741,22.729c.407,0,.738,2.154.741,4.818h-1.482C134.709,306.849,135.039,304.7,135.446,304.7Z" transform="translate(-52.732 -277.54)" fill-rule="evenodd" fill="url(#linear-gradient)"/>
      </g>
      <path id="Tracé_1271" data-name="Tracé 1271" d="M303.3,380.663V367.4h-8.629v-2.554h-5.3v-1.4h-1.3a5.768,5.768,0,0,0-4.89-5.223c1.008.738,1.736,2.747,1.819,5.223h-.475c-.1-3.044-1.186-5.058-2.2-5.058s-2.1,2.014-2.2,5.058h-.475c.084-2.476.811-4.485,1.819-5.223a5.768,5.768,0,0,0-4.89,5.223h-1.3v1.4h-4.9V367.4H267V355.942h1.082v-2.7H267v-3.966h1.392a2.859,2.859,0,0,0-2.327-2.808v-1.206H265.8v-1.241h-.541v1.241H265v1.206a2.859,2.859,0,0,0-2.328,2.808h1.391v3.966h-1.082v2.7h1.082V367.4h-2.948v-3.225h-2.876V346.948H240.659v6.392h-3.2v-11.5h-1.758V339.6h-22.37v2.237h-1.758v11.5H195.919v1.917h-2.556v14.062h-1.439V329.6l-2.65,5.5-2.651-5.5-2.65,5.5-2.652-5.5-2.65,5.5-2.651-5.5-2.651,5.5-2.651-5.5c-29.983-95.662-112,26.584,123.949,73.277h16.3v-22.21Z" transform="translate(99.918 -130.915)" fill-rule="evenodd" fill="url(#linear-gradient-2)"/>
      <g id="Groupe_698" data-name="Groupe 698" transform="translate(141.727 79.302)">
        <path id="Tracé_491" data-name="Tracé 491" d="M2295.9,3051.434a1.4,1.4,0,0,0-.05-.424c-2.448-8.375-14.6-13.592-14.6-13.592l-4.816.325c-2.769,7.382-2.413,11.91-1.968,13.926.012.057.032.11.05.165A132.425,132.425,0,0,0,2295.9,3051.434Z" transform="translate(-2119.641 -2803.661)" fill="#e7004c"/>
        <path id="Tracé_492" data-name="Tracé 492" d="M2278.092,3193.726a1.965,1.965,0,0,0,1.528,1.332c5.651,1.025,14.633.2,18.4-.226a1.594,1.594,0,0,0,1.454-1.507A132.425,132.425,0,0,1,2278.092,3193.726Z" transform="translate(-2123.222 -2945.552)" fill="url(#linear-gradient-3)"/>
        <path id="Tracé_493" data-name="Tracé 493" d="M2277.9,2972.2l2.04,8.471a1.525,1.525,0,0,0,1.372,1.14,15.745,15.745,0,0,0,3.16-.043,1.776,1.776,0,0,0,1.6-2.046l-1.418-7.522Z" transform="translate(-2123.043 -2744.307)" fill="url(#linear-gradient-4)"/>
        <path id="Tracé_494" data-name="Tracé 494" d="M2651.892,3184.988c-5.319-.128-8.07-.669-9.492-1.17,0,.456,0,.92.016,1.4a.978.978,0,0,0,1,.921l29.2-.163a1.152,1.152,0,0,0,1.073-1.675C2669.866,3184.576,2660.114,3185.187,2651.892,3184.988Z" transform="translate(-2454.778 -2936.901)" fill="url(#linear-gradient-5)"/>
        <path id="Tracé_495" data-name="Tracé 495" d="M2673.708,3064.242a1.1,1.1,0,0,0-.116-.19c-2.579-3.109-9.148-9.3-22.128-11.985l-6.227-.169s-2.773,4.158-2.825,11.859c1.422.5,4.173,1.042,9.492,1.17C2660.126,3065.125,2669.878,3064.515,2673.708,3064.242Z" transform="translate(-2454.79 -2816.839)" fill="#e7004c"/>
        <path id="Tracé_496" data-name="Tracé 496" d="M2660.992,2948.143c.069.4.923,6.487,1.253,8.846a1.26,1.26,0,0,0,1.143,1.056,16.493,16.493,0,0,0,4.277-.057,1.648,1.648,0,0,0,1.4-1.595v-9.553Z" transform="translate(-2471.7 -2721.226)" fill="url(#linear-gradient-6)"/>
        <path id="Tracé_497" data-name="Tracé 497" d="M2204.864,1725.843s15.019,49.242,14.748,111.209a2.515,2.515,0,0,1-2.206,2.337,37.3,37.3,0,0,1-6.962.7,2.485,2.485,0,0,1-2.458-1.858c-2.106-10.655-12.16-71.892-19.045-81.636,0,0-6.562,54.674-5.113,82.408a1.39,1.39,0,0,1-1.344,1.367,29.626,29.626,0,0,1-5.59-.013,1.935,1.935,0,0,1-1.816-1.493c-1.5-9.017-10.134-62.691-9.767-101.355.021-2.18,6.684-11.661,6.684-11.661Z" transform="translate(-2020.567 -1609.994)" fill="#004883"/>
        <path id="Tracé_498" data-name="Tracé 498" d="M1995.106,876.125c18.682-11.631,46.813-5.744,57.695-4.561a15.332,15.332,0,0,1,9.182,4.253c9.324,9.309,32.445,45.733-5.008,63.7-2.5-1.816-3.158-6.97-5.376-11.091,5.357-6.758,8.533-13.47,2.949-23.624a21.139,21.139,0,0,1-.713,2.386,129.135,129.135,0,0,0-8.09,42.574,1.347,1.347,0,0,1-.968,1.245c-10.129,3.5-29.627,1.418-36.173.576a1.961,1.961,0,0,1-1.842-2.155c3.212-20.078-13.274-53.107-17.628-61.38C1988.822,887.451,1992.641,880.981,1995.106,876.125Z" transform="translate(-1860.225 -830.204)" fill="#f53a79"/>
        <path id="Tracé_499" data-name="Tracé 499" d="M2305.758,661.354l-2.118,14.84a2.587,2.587,0,0,0,2.133,2.893c2.9.54,7.894,1,12.51-.867a2.948,2.948,0,0,0,1.8-3.519l-3.389-18.577Z" transform="translate(-2146.449 -636.441)" fill="url(#linear-gradient-7)"/>
        <g id="Groupe_131" data-name="Groupe 131" transform="translate(143.694)">
          <path id="Tracé_500" data-name="Tracé 500" d="M2212.588,523.471c-.116.326.279,22.114.279,22.114l13.556-2.05,2.971-21.091S2214.526,518.011,2212.588,523.471Z" transform="translate(-2207.281 -513.233)" fill="url(#linear-gradient-8)"/>
          <path id="Tracé_501" data-name="Tracé 501" d="M2171.35,449.659a1.527,1.527,0,0,1,.672,1.375l-.624,10.946a1.727,1.727,0,0,1-.1.493c-.324.9-1.6,3.71-4.545,2.709-2.512-.854-4.839-1.6-6.691-1.375a2.153,2.153,0,0,0-1.917,2.058,59.659,59.659,0,0,0,.95,9.719,1.69,1.69,0,0,0,2.112,1.2,63.072,63.072,0,0,0,11.938-3.658,2.143,2.143,0,0,0,1.261-1.576c.451-2.933,1.751-11.154,2.5-13.468.7-2.149,3.709-3.317,5.121-3.755a2.3,2.3,0,0,0,1.28-.985c.846-1.393,2.027-4.3-1.633-5.812a1.592,1.592,0,0,1-.708-2.329c.9-1.622,1.5-4-1.406-5.515-2.943-1.533-5.672-.182-7.325,1.071a2.191,2.191,0,0,1-2.429.239,1.322,1.322,0,0,0-1.26-.064,1.741,1.741,0,0,1-2.393-.866c-.532-1.552-1.862-3.182-5.142-2.846-6.015.617-7.882,6.658-7.052,10.3s7.357,2.636,10.853,1.014C2167.379,447.348,2170.091,448.8,2171.35,449.659Z" transform="translate(-2153.771 -437.176)"/>
          <path id="Tracé_502" data-name="Tracé 502" d="M2405.673,629.226s-1.142-6.447,1.626-7.857,6.255-.406,4.544,4.124C2409.716,631.127,2405.673,629.226,2405.673,629.226Z" transform="translate(-2382.815 -604.271)" fill="url(#linear-gradient-9)"/>
        </g>
        <path id="Tracé_503" data-name="Tracé 503" d="M2717.548,1032.861c4.083-9.639,2.6-21.278,2.586-21.395l-1.125.111c.015.115,1.464,11.53-2.525,20.948Z" transform="translate(-2522.203 -959.838)" fill="#dd2160"/>
        <g id="Groupe_132" data-name="Groupe 132" transform="translate(113.442 45.951)">
          <path id="Tracé_504" data-name="Tracé 504" d="M1817.388,1589.008a195.629,195.629,0,0,0,.461,22.368l6.392.689s2.639-10.02,6.762-21.724A32.969,32.969,0,0,1,1817.388,1589.008Z" transform="translate(-1817.252 -1531.411)" fill="#0862b2"/>
          <path id="Tracé_505" data-name="Tracé 505" d="M1850.389,973.134s-1.6-19.3-10.387-24.817c0,0-19.423,12.051-21.235,57.6a32.966,32.966,0,0,0,13.615,1.333C1837.044,994.011,1843.6,978.621,1850.389,973.134Z" transform="translate(-1818.63 -948.317)" fill="#f53a79"/>
        </g>
        <path id="Tracé_506" data-name="Tracé 506" d="M1786.058,1793.1s4,1.379,4.794,6.894-4,9.651-7.99,8.961-8.278-11.03-.943-15.855S1786.058,1793.1,1786.058,1793.1Z" transform="translate(-1668.025 -1669.255)" fill="url(#linear-gradient-10)"/>
        <path id="Tracé_507" data-name="Tracé 507" d="M688.773,596.861a66.23,66.23,0,0,1-13.614,7.668c-4.413,1.827-13,4.528-14.13,12.418-.585,4.073-4.078,7.335-8.781,7.957-11.712,1.549-29.762,6.8-32.65,24.339-2.2,13.391,5.708,18.468,14.012,20.226,6.1,1.291,10.152,6.409,8.918,11.721-1.183,5.1.581,10.986,10.813,15.644,22.929,10.438,45.827-24.728,45.827-24.728l4.693-61.4Z" transform="translate(-613.482 -582.506)"/>
        <path id="Tracé_508" data-name="Tracé 508" d="M727.208,845.086a2.263,2.263,0,0,1-1.045-.315,14.085,14.085,0,0,1-6.925-15.069,13.788,13.788,0,0,1,5.689-8.538,26.776,26.776,0,0,1,6.861-3.038c3.951-1.288,8.021-2.423,12.1-3.373l1.01-.233a41.152,41.152,0,0,0,7.089-2.08c2.872-1.24,4.966-3.045,5.9-5.081a13.336,13.336,0,0,0,.9-4.016,10.772,10.772,0,0,1,1.354-4.812.038.038,0,0,1,.063.042,10.717,10.717,0,0,0-1.342,4.78,13.384,13.384,0,0,1-.91,4.038c-.937,2.054-3.045,3.872-5.934,5.12a41.229,41.229,0,0,1-7.1,2.084l-1.01.233c-4.073.95-8.141,2.084-12.09,3.372a26.71,26.71,0,0,0-6.842,3.028,13.712,13.712,0,0,0-5.657,8.491A14.008,14.008,0,0,0,726.2,844.7c.412.232,1.2.511,1.554.09a.038.038,0,1,1,.058.048A.75.75,0,0,1,727.208,845.086Z" transform="translate(-704.236 -766.029)" fill="#fff"/>
        <path id="Tracé_509" data-name="Tracé 509" d="M763.913,1097.8a.037.037,0,0,1-.03-.015,13.155,13.155,0,0,1-3.1-8.068,8.743,8.743,0,0,1,4.3-7.434.038.038,0,1,1,.038.066,8.667,8.667,0,0,0-4.262,7.37,13.082,13.082,0,0,0,3.087,8.02.038.038,0,0,1-.007.053A.039.039,0,0,1,763.913,1097.8Z" transform="translate(-742.313 -1024.288)" fill="#fff"/>
        <path id="Tracé_510" data-name="Tracé 510" d="M1566.834,1178.36s12.784,31.71,16.78,59.973l-4,3.447s-12.784-35.846-22.373-46.186Z" transform="translate(-1467.178 -1111.729)" fill="url(#linear-gradient-11)"/>
        <path id="Tracé_511" data-name="Tracé 511" d="M570.577,3095.987l-.867,6.147a2.768,2.768,0,0,1-2.582,2.222,52.765,52.765,0,0,1-9.536.129,2.207,2.207,0,0,1-2.117-2.82c.874-2.373,2.474-5.936,4.78-8.032h7.9A2.238,2.238,0,0,1,570.577,3095.987Z" transform="translate(-555.357 -2854.823)" fill="#e7004c"/>
        <path id="Tracé_512" data-name="Tracé 512" d="M1258.9,2318.8l1.334,6.77s-4.468,39.042-5.262,54.659a10.971,10.971,0,0,0,2.1,6.955l7.769,10.883-19.744-10.051-.393-2.079,3.232-3.834-4.233-43.736a11.894,11.894,0,0,1,1.77-7.422l4.084-6.619Z" transform="translate(-1181.767 -2149.642)" fill="url(#linear-gradient-12)"/>
        <path id="Tracé_513" data-name="Tracé 513" d="M1261.086,3054.473h-6.3a4.035,4.035,0,0,1-3.011-1.273c-1.964-2.2-6.034-6.5-7.98-6.61-2.619-.151-2.284,7.883-2.284,7.883h-1.468l-1.86-9.984a5.723,5.723,0,0,1,3.594-6.177h0a8.125,8.125,0,0,0,3.846,5.511c3.247,1.689,13.213,7.742,13.213,7.742a10.389,10.389,0,0,1,2.561.059C1263.384,3051.933,1263.106,3054.473,1261.086,3054.473Z" transform="translate(-1176.719 -2804.475)" fill="#e7004c"/>
        <path id="Tracé_514" data-name="Tracé 514" d="M633.466,2326.081s-26.173,42.832-30.333,52.611a83.55,83.55,0,0,0-5.674,18.71c-.087,1.207-1.827,2.365-6.625,2.365-2.476,0-3.688-.856-4.282-1.685a2.129,2.129,0,0,1-.106-2.337c1.514-2.643,6.318-11.091,8.1-14.922,2.124-4.574,6.694-25.306,9.2-32.513s5.339-15.027,16.253-22.229C620,2326.081,627.49,2319.75,633.466,2326.081Z" transform="translate(-583.38 -2153.711)" fill="url(#linear-gradient-13)"/>
        <path id="Tracé_515" data-name="Tracé 515" d="M1191.616,1051.038c6.751-24.681-10.352-38.641-10.352-38.641,10.792-8.937,30.454-13,30.454-13s18.762,11.834,16.536,21.1c-1.3,5.429-13.188,32.518-13.188,32.518A29.813,29.813,0,0,1,1191.616,1051.038Z" transform="translate(-1124.996 -948.851)" fill="#f53a79"/>
        <path id="Tracé_516" data-name="Tracé 516" d="M969.312,1586.092c2.748-7.141,14.969-12.219,14.969-12.219a29.813,29.813,0,0,0,23.451,1.971s2.464,8.126.763,15.679-12.372,56.088-12.372,56.088c-16.814,2.939-42.675-2.958-42.675-2.958C964.159,1628.248,966.565,1593.233,969.312,1586.092Z" transform="translate(-917.661 -1471.686)" fill="#004883"/>
        <path id="Tracé_517" data-name="Tracé 517" d="M1327.154,797.43l-5.489,21.271c-.525,1.874,1.455,1.567,3.65,1.21,3.6-.585,8.23-1.789,9.779-4.2a2.065,2.065,0,0,0,.281-.8l2.358-14.75a2.606,2.606,0,0,0-1.8-2.785l-4.551-1.741A3.188,3.188,0,0,0,1327.154,797.43Z" transform="translate(-1252.697 -763.198)" fill="url(#linear-gradient-14)"/>
        <g id="Groupe_133" data-name="Groupe 133" transform="translate(67.127 10.132)">
          <path id="Tracé_518" data-name="Tracé 518" d="M1391.1,639.027s4.172,5.328,3.3,14.332-5.816,10.4-9.633,8.675a20.435,20.435,0,0,1-11.627-12.73C1370.561,641.572,1385.526,632.326,1391.1,639.027Z" transform="translate(-1366.484 -628.91)" fill="url(#linear-gradient-15)"/>
          <path id="Tracé_519" data-name="Tracé 519" d="M1314.94,568.969s2.6-12.365,13.041-6.173l1.449,2.917s7.555-3.133,3.111-9.532-13.224-8.7-20.75-3.246-11.24,9.906-9.156,15.977,6.547,3.345,6.547,3.345-.224-4.628,1.921-5.724,3,2.322,3,2.322Z" transform="translate(-1302.06 -549.876)"/>
          <path id="Tracé_520" data-name="Tracé 520" d="M1377.737,724.251s1.381-6.345-2.82-6.042-.938,6.067.464,8.144Z" transform="translate(-1366.484 -703.067)" fill="url(#linear-gradient-16)"/>
        </g>
        <path id="Tracé_535" data-name="Tracé 535" d="M1044.319,1144.027a6.313,6.313,0,0,0-6.228.622c-3.459,2.519-11.4,10.049-12.23,26.505-1.064,21.106,36.163,15.6,36.163,15.6l2.127-4.588s-26.591-.918-26.591-10.094c0-6.463,7.721-13.975,11.153-16.994a4.208,4.208,0,0,0,1.409-4.394A11.626,11.626,0,0,0,1044.319,1144.027Z" transform="translate(-983.543 -1079.983)" fill="url(#linear-gradient-17)"/>
        <path id="Tracé_537" data-name="Tracé 537" d="M2430.263,1528.167a45.228,45.228,0,0,0,5.1,11.232,80.98,80.98,0,0,1-21.574,1.855c-1.611-.053-2.784-.2-4.189.592l-2.7,1.825-2.023-10.685S2418.891,1534.19,2430.263,1528.167Z" transform="translate(-2238.617 -1430.089)" fill="url(#linear-gradient-18)"/>
        <path id="Tracé_32591" data-name="Tracé 32591" d="M3580.207,7142.813c-.021.026-.3-.46.612,2.963s-32.421,3.684-34.822,1.979a10,10,0,0,1-3.168-3.288s4.527.649,5.97.79,5.747.445,6.567.519,7.281.191,8.051.2,8.483-.435,11.19-.822A16.438,16.438,0,0,0,3580.207,7142.813Z" transform="translate(-3394.691 -7023.245)" fill="#e7004c"/>
        <g id="Groupe_134" data-name="Groupe 134" transform="translate(78.125 92.702)">
          <path id="Tracé_521" data-name="Tracé 521" d="M1726.253,1486.15s-.989-5.263,3.068-6.4c0,0-1.838-6.071,3.906-6.052,0,0,9.821-12.21,17.743.306,0,0,17.728,1.075,10.716,14.5,0,0,4.647,4.158-2.115,7.512,0,0-5.466,16.432-17.786,5.839Z" transform="translate(-1699.021 -1468.364)" fill-rule="evenodd" fill="url(#linear-gradient-19)"/>
          <path id="Tracé_522" data-name="Tracé 522" d="M2101.013,1520.337c-3.678-3.778-6.341,1.3-6.341,1.3-2.961,1,0,7.364,0,7.365-1.813,3.512-11.269,21.567-16.4,26.021-5.686,4.941,3.46,6.228,3.46,6.228s10.218-4.781,15.947-30.8a.5.5,0,0,0,.134-.068C2098.6,1529.781,2104.692,1524.115,2101.013,1520.337Z" transform="translate(-2017.8 -1514.392)" fill="#ff928e"/>
          <path id="Tracé_523" data-name="Tracé 523" d="M1448.346,1555.838c-4.611-4.007-13.2-20.93-16.284-27.182.558-1.32,2.4-6.163-.148-7.024,0,0-2.663-5.074-6.341-1.3-3.393,3.485,1.524,8.573,2.921,9.81,2.9,14.65,13.448,31.094,13.448,31.094S1454.032,1560.779,1448.346,1555.838Z" transform="translate(-1424.401 -1514.392)" fill="#ff928e"/>
          <path id="Tracé_524" data-name="Tracé 524" d="M1759.877,3155.208a23.067,23.067,0,0,1,.768,5.322.723.723,0,0,1-.625.7c-2.066.285-9.121,1.131-13,0a.717.717,0,0,1-.516-.707c.035-1.217.891-4.072,7.97-4.8Z" transform="translate(-1717.551 -3003.564)" fill="#e7004c" fill-rule="evenodd"/>
          <path id="Tracé_525" data-name="Tracé 525" d="M1758.938,2634.334c-.871.569,5.7,46.72,7.293,47.056,0,0,1.821,1.692,4.632-.237-1.623-15.042-2.61-30.3-1.737-45.89Z" transform="translate(-1728.792 -2529.515)" fill="#ff928e" fill-rule="evenodd"/>
          <path id="Tracé_526" data-name="Tracé 526" d="M1934.965,3155.208a23.058,23.058,0,0,1,.768,5.322.723.723,0,0,1-.624.7c-2.067.285-9.121,1.131-13,0a.717.717,0,0,1-.516-.707c.035-1.217.892-4.072,7.971-4.8Z" transform="translate(-1876.899 -3003.564)" fill="#e7004c" fill-rule="evenodd"/>
          <path id="Tracé_527" data-name="Tracé 527" d="M1934.027,2634.334c-.871.569,5.7,46.72,7.293,47.056,0,0,1.821,1.692,4.632-.237-1.623-15.042-2.611-30.3-1.737-45.89Z" transform="translate(-1888.141 -2529.515)" fill="#ff928e" fill-rule="evenodd"/>
          <path id="Tracé_528" data-name="Tracé 528" d="M1747.49,2322.749s-21.433.98-26.538,2.772c0,0,.629,17.426,2.724,28.134a1.07,1.07,0,0,0,.808.84c1.375.319,4.837.774,10.324-.762a1.072,1.072,0,0,0,.778-1.105l-.566-6.941a.846.846,0,0,1,.786-.9l.574-.087a.846.846,0,0,1,.9.836l1.083,7.04a1.069,1.069,0,0,0,.727,1,18.7,18.7,0,0,0,11.332-.12,1.069,1.069,0,0,0,.758-1.012C1751.239,2343.9,1749.7,2333.683,1747.49,2322.749Z" transform="translate(-1694.293 -2245.941)" fill="#f53a79" fill-rule="evenodd"/>
          <path id="Tracé_529" data-name="Tracé 529" d="M1926.78,2334.036s2.709,7.533,9.247,8.055l-1.446-8.59A49.348,49.348,0,0,0,1926.78,2334.036Z" transform="translate(-1881.617 -2255.726)" fill-rule="evenodd" fill="url(#linear-gradient-20)"/>
          <path id="Tracé_530" data-name="Tracé 530" d="M1616.561,1869.264s-9.687,6.228-21.45,5.535c-9.81-.577-15.77-3.079-19.084-5.9a3.506,3.506,0,0,0-4.179-.332,29.759,29.759,0,0,0-5.343,4.448,1.606,1.606,0,0,0-.222,1.949c2.858,4.616,5.9,7.844,9.135,9.72a6.319,6.319,0,0,1,1.637,4.412l-.6,22.675a1.277,1.277,0,0,0,1.038,1.293c4.3.816,20.619,3.657,30.763,1.867v-24.456a4.99,4.99,0,0,1,2.595-4.354,26.8,26.8,0,0,0,8.476-7.862Z" transform="translate(-1553.316 -1832.097)" fill="#0862b2" fill-rule="evenodd"/>
          <path id="Tracé_531" data-name="Tracé 531" d="M1835.725,1823.622l1.063,11.675s-6.162,3.6-11.464.453l.941-10.2Z" transform="translate(-1789.282 -1791.685)" fill="#ff928e" fill-rule="evenodd"/>
          <path id="Tracé_532" data-name="Tracé 532" d="M1701.2,1582.65s-18.616,13.922-8.1,23.973c9.923,9.487,19.22-.852,19.22-.852s7.11-3.526,6.844-8.289S1704.958,1581.436,1701.2,1582.65Z" transform="translate(-1666.012 -1572.293)" fill="#fca19e" fill-rule="evenodd"/>
          <path id="Tracé_533" data-name="Tracé 533" d="M1803.925,1572.815a3.9,3.9,0,0,1-1.74-1.735,5.639,5.639,0,0,1-.364-4.145,1.36,1.36,0,0,0,.031-1.062c-.229-.375-.753-.391-1.19-.437a3.918,3.918,0,0,1-2.833-6.1c-1.8-.464-1.993-1.877-3.266-2.76-1.169-.81-2.853-.122-4.14-.65-.948-.389-2.917-1.837-2.649-3.1.12-.567,1.758-1.771,2.288-2.146,2.373-1.678,4.962-1.175,7.061.721,6.057,5.47,11.48,10.771,12.636,13.539a6.477,6.477,0,0,1-.524,6.171A4.423,4.423,0,0,1,1803.925,1572.815Z" transform="translate(-1755.084 -1542.354)" fill-rule="evenodd"/>
          <path id="Tracé_534" data-name="Tracé 534" d="M1915.73,1801.536l4.17-5.035s4.734-.417,3.075,2.539S1917.041,1802.431,1915.73,1801.536Z" transform="translate(-1871.561 -1766.984)" fill-rule="evenodd" fill="url(#linear-gradient-21)"/>
        </g>
        <path id="Tracé_538" data-name="Tracé 538" d="M2260.3,1534.788c-2.74,2.177-9.3,1.517-12.715.6-4.145-.948-4.954-3.327-4.439-6.275a32.348,32.348,0,0,0,10.656-5.818c-.659-3.173-2.009-4.16-3.61-4.353,5.233,1.3,9.36,3.252,11.629,6.3Z" transform="translate(-2091.291 -1421.691)" fill="url(#linear-gradient-22)"/>
        <path id="Tracé_536" data-name="Tracé 536" d="M1393.3,1541.839a53.617,53.617,0,0,1,7.005-2.757c3.191-.917,4.254,0,4.254,0a16.271,16.271,0,0,0-4.254,1.835c-1.064.918,5.092.925,7.332.921s2.636,4.51.311,5.924a12.432,12.432,0,0,1-15.088-1.339Z" transform="translate(-1317.574 -1439.652)" fill="url(#linear-gradient-23)"/>
        <path id="Tracé_32592" data-name="Tracé 32592" d="M0-.088l5.922-.07L6,2.641,0,2.767Z" transform="translate(165.309 122.755)" fill="#fff"/>
      </g>
    </g>
  </g>
</svg>
